<svg width="245" height="46" viewBox="0 0 245 46" fill="none" xmlns="http://www.w3.org/2000/svg">
<path d="M28.9287 19.004C28.9287 17.204 29.2647 15.512 29.9367 13.928C30.6327 12.32 31.5927 10.904 32.8167 9.68C34.0407 8.432 35.4447 7.46 37.0287 6.764C38.6367 6.044 40.3647 5.684 42.2127 5.684C44.0367 5.684 45.7407 6.044 47.3247 6.764C48.9327 7.46 50.3487 8.432 51.5727 9.68C52.8207 10.904 53.7927 12.32 54.4887 13.928C55.1847 15.512 55.5327 17.204 55.5327 19.004C55.5327 20.852 55.1847 22.58 54.4887 24.188C53.7927 25.796 52.8207 27.212 51.5727 28.436C50.3487 29.636 48.9327 30.584 47.3247 31.28C45.7407 31.952 44.0367 32.288 42.2127 32.288C40.3647 32.288 38.6367 31.952 37.0287 31.28C35.4447 30.608 34.0407 29.672 32.8167 28.472C31.5927 27.272 30.6327 25.868 29.9367 24.26C29.2647 22.652 28.9287 20.9 28.9287 19.004ZM32.5287 19.04C32.5287 20.408 32.7807 21.692 33.2847 22.892C33.7887 24.068 34.4847 25.112 35.3727 26.024C36.2607 26.936 37.2927 27.656 38.4687 28.184C39.6447 28.688 40.9167 28.94 42.2847 28.94C43.6287 28.94 44.8887 28.688 46.0647 28.184C47.2407 27.656 48.2607 26.936 49.1247 26.024C49.9887 25.112 50.6727 24.068 51.1767 22.892C51.6807 21.692 51.9327 20.396 51.9327 19.004C51.9327 17.636 51.6807 16.352 51.1767 15.152C50.6727 13.928 49.9767 12.86 49.0887 11.948C48.2007 11.036 47.1687 10.328 45.9927 9.824C44.8167 9.296 43.5567 9.032 42.2127 9.032C40.8447 9.032 39.5727 9.296 38.3967 9.824C37.2207 10.352 36.1887 11.072 35.3007 11.984C34.4127 12.896 33.7287 13.964 33.2487 15.188C32.7687 16.388 32.5287 17.672 32.5287 19.04ZM61.4159 32V5.144H61.4519L75.0959 24.512L73.6199 24.224L87.2279 5.144H87.2999V32H83.8439V13.064L84.0599 14.828L74.2319 28.724H74.1599L64.1879 14.828L64.7999 13.208V32H61.4159ZM117.315 32.828L97.1912 12.416L98.1992 12.668L98.2712 32H94.7792V5.18H94.9592L114.867 25.664L114.039 25.484L113.967 5.972H117.423V32.828H117.315ZM124.908 5.972H128.4V32H124.908V5.972ZM142.825 5.972C144.721 5.972 146.341 6.296 147.685 6.944C149.029 7.568 150.061 8.48 150.781 9.68C151.525 10.88 151.897 12.332 151.897 14.036C151.897 15.068 151.741 16.088 151.429 17.096C151.117 18.08 150.613 18.98 149.917 19.796C149.245 20.588 148.357 21.224 147.253 21.704C146.149 22.184 144.805 22.424 143.221 22.424H139.369V32H135.877V5.972H142.825ZM143.185 19.076C144.217 19.076 145.069 18.908 145.741 18.572C146.413 18.236 146.941 17.816 147.325 17.312C147.709 16.784 147.985 16.232 148.153 15.656C148.321 15.08 148.405 14.564 148.405 14.108C148.405 13.58 148.321 13.04 148.153 12.488C147.985 11.912 147.697 11.396 147.289 10.94C146.905 10.46 146.389 10.076 145.741 9.788C145.117 9.476 144.337 9.32 143.401 9.32H139.369V19.076H143.185ZM152.199 32L163.575 4.892H163.791L175.131 32H171.135L162.639 10.364L165.123 8.744L155.619 32H152.199ZM158.859 22.136H168.543L169.695 25.16H157.851L158.859 22.136ZM193.497 10.616C192.609 10.16 191.637 9.764 190.581 9.428C189.525 9.092 188.493 8.924 187.485 8.924C186.093 8.924 184.977 9.248 184.137 9.896C183.321 10.544 182.913 11.408 182.913 12.488C182.913 13.304 183.177 14 183.705 14.576C184.233 15.128 184.929 15.608 185.793 16.016C186.657 16.424 187.557 16.808 188.493 17.168C189.309 17.48 190.113 17.828 190.905 18.212C191.697 18.596 192.405 19.076 193.029 19.652C193.677 20.228 194.181 20.936 194.541 21.776C194.925 22.616 195.117 23.66 195.117 24.908C195.117 26.276 194.769 27.524 194.073 28.652C193.401 29.78 192.429 30.668 191.157 31.316C189.885 31.964 188.373 32.288 186.621 32.288C185.469 32.288 184.365 32.156 183.309 31.892C182.277 31.628 181.317 31.292 180.429 30.884C179.541 30.452 178.749 30.008 178.053 29.552L179.601 26.816C180.177 27.224 180.837 27.62 181.581 28.004C182.325 28.364 183.105 28.664 183.921 28.904C184.737 29.12 185.529 29.228 186.297 29.228C187.113 29.228 187.917 29.084 188.709 28.796C189.525 28.484 190.197 28.016 190.725 27.392C191.253 26.768 191.517 25.94 191.517 24.908C191.517 24.02 191.277 23.288 190.797 22.712C190.341 22.112 189.729 21.608 188.961 21.2C188.193 20.768 187.377 20.384 186.513 20.048C185.697 19.736 184.869 19.4 184.029 19.04C183.189 18.656 182.409 18.2 181.689 17.672C180.969 17.12 180.393 16.448 179.961 15.656C179.529 14.864 179.313 13.904 179.313 12.776C179.313 11.408 179.637 10.22 180.285 9.212C180.957 8.18 181.869 7.376 183.021 6.8C184.173 6.2 185.493 5.876 186.981 5.828C188.661 5.828 190.137 6.032 191.409 6.44C192.705 6.848 193.845 7.352 194.829 7.952L193.497 10.616ZM214.45 10.616C213.562 10.16 212.59 9.764 211.534 9.428C210.478 9.092 209.446 8.924 208.438 8.924C207.046 8.924 205.93 9.248 205.09 9.896C204.274 10.544 203.866 11.408 203.866 12.488C203.866 13.304 204.13 14 204.658 14.576C205.186 15.128 205.882 15.608 206.746 16.016C207.61 16.424 208.51 16.808 209.446 17.168C210.262 17.48 211.066 17.828 211.858 18.212C212.65 18.596 213.358 19.076 213.982 19.652C214.63 20.228 215.134 20.936 215.494 21.776C215.878 22.616 216.07 23.66 216.07 24.908C216.07 26.276 215.722 27.524 215.026 28.652C214.354 29.78 213.382 30.668 212.11 31.316C210.838 31.964 209.326 32.288 207.574 32.288C206.422 32.288 205.318 32.156 204.262 31.892C203.23 31.628 202.27 31.292 201.382 30.884C200.494 30.452 199.702 30.008 199.006 29.552L200.554 26.816C201.13 27.224 201.79 27.62 202.534 28.004C203.278 28.364 204.058 28.664 204.874 28.904C205.69 29.12 206.482 29.228 207.25 29.228C208.066 29.228 208.87 29.084 209.662 28.796C210.478 28.484 211.15 28.016 211.678 27.392C212.206 26.768 212.47 25.94 212.47 24.908C212.47 24.02 212.23 23.288 211.75 22.712C211.294 22.112 210.682 21.608 209.914 21.2C209.146 20.768 208.33 20.384 207.466 20.048C206.65 19.736 205.822 19.4 204.982 19.04C204.142 18.656 203.362 18.2 202.642 17.672C201.922 17.12 201.346 16.448 200.914 15.656C200.482 14.864 200.266 13.904 200.266 12.776C200.266 11.408 200.59 10.22 201.238 9.212C201.91 8.18 202.822 7.376 203.974 6.8C205.126 6.2 206.446 5.876 207.934 5.828C209.614 5.828 211.09 6.032 212.362 6.44C213.658 6.848 214.798 7.352 215.782 7.952L214.45 10.616Z" fill="#000011"/>
<path d="M21.5 18.5C21.5 27.0604 21.5 16.5 21.5 34C12.9396 34 6 27.0604 6 18.5C6 9.93959 12.9396 3 21.5 3C21.5 16 21.5 9.93959 21.5 18.5Z" fill="#E54646"/>
</svg>
