<svg width="872" height="104" viewBox="0 0 872 104" fill="none" xmlns="http://www.w3.org/2000/svg">
<path d="M69.0386 50.5401H189.717" stroke="black" stroke-width="2" stroke-miterlimit="10"/>
<path d="M593.492 26.7764H714.821" stroke="black" stroke-width="2" stroke-miterlimit="10"/>
<path d="M545.146 87.6048H872" stroke="#EEDEC1" stroke-miterlimit="10"/>
<path d="M545.856 74.4937H870.183" stroke="#EEDEC1" stroke-miterlimit="10"/>
<path d="M548.357 63.565H865.038" stroke="#EEDEC1" stroke-miterlimit="10"/>
<path d="M795.424 73.0815C794.934 75.1776 794.325 77.2477 794.097 79.3869C793.573 84.3898 795.213 89.4445 797.882 93.6797C800.29 97.4922 803.636 100.822 807.759 102.504C811.891 104.186 816.851 104.056 820.551 101.538C825.832 97.9494 827.37 90.6434 826.88 84.1828C826.381 77.7221 824.328 71.4254 824.303 64.9561C824.294 62.4806 824.582 59.9877 824.168 57.5466C823.762 55.1056 822.486 52.6386 820.273 51.6381C821.464 59.1338 820.78 66.9228 818.321 74.0907C817.755 75.7296 815.727 77.5669 814.755 76.1436C815.879 70.0021 816.927 63.3173 814.071 57.7968C813.319 56.3477 812.305 55.0193 811.756 53.4753C811.232 52.0262 811.139 50.4564 811.097 48.9037C810.979 43.6507 811.494 38.3717 812.643 33.2481C812.989 31.7041 813.378 30.0393 812.753 28.5902C812.128 27.1411 809.948 26.3734 809.01 27.6414C808.731 28.0209 808.621 28.4867 808.511 28.9525C806.729 36.638 804.929 44.4788 805.512 52.354C805.909 57.7192 807.413 62.9464 807.743 68.3115C808.08 73.6767 807.016 79.5249 803.189 83.2167C801.296 77.4116 802.073 71.1062 802.124 64.9906C802.166 60.212 801.972 53.1303 797.823 50.3269C796.235 57.5984 797.181 65.5858 795.432 73.0902L795.424 73.0815Z" fill="#BE1E2D"/>
<path d="M74.1762 65.9198C82.5989 65.9198 89.4269 58.9491 89.4269 50.3504C89.4269 41.7517 82.5989 34.781 74.1762 34.781C65.7535 34.781 58.9255 41.7517 58.9255 50.3504C58.9255 58.9491 65.7535 65.9198 74.1762 65.9198Z" fill="#000010"/>
<path d="M43.6581 54.4044C45.8513 54.4044 47.6292 52.5894 47.6292 50.3504C47.6292 48.1114 45.8513 46.2963 43.6581 46.2963C41.4649 46.2963 39.687 48.1114 39.687 50.3504C39.687 52.5894 41.4649 54.4044 43.6581 54.4044Z" fill="#000010"/>
<path d="M55.9256 50.3504H44.6292" stroke="#000010" stroke-miterlimit="10"/>
<path d="M714.821 42.1387C723.244 42.1387 730.072 35.1681 730.072 26.5694C730.072 17.9706 723.244 11 714.821 11C706.398 11 699.571 17.9706 699.571 26.5694C699.571 35.1681 706.398 42.1387 714.821 42.1387Z" fill="#000010"/>
<path d="M745.339 30.6235C747.533 30.6235 749.311 28.8084 749.311 26.5694C749.311 24.3304 747.533 22.5153 745.339 22.5153C743.146 22.5153 741.368 24.3304 741.368 26.5694C741.368 28.8084 743.146 30.6235 745.339 30.6235Z" fill="#000010"/>
<path d="M730.072 26.5694H741.377" stroke="#000010" stroke-miterlimit="10"/>
<path d="M64.8626 27.9384C64.5669 29.2064 64.1952 30.4657 64.06 31.7596C63.7389 34.7958 64.7359 37.8579 66.3581 40.4284C67.8198 42.7401 69.8476 44.7585 72.3486 45.785C74.8495 46.8114 77.8574 46.7252 80.1049 45.1984C83.3071 43.0247 84.2449 38.5911 83.9407 34.6751C83.6366 30.759 82.3946 26.9378 82.3777 23.0131C82.3777 21.5122 82.5466 19.9941 82.2932 18.5191C82.0397 17.0442 81.2708 15.5433 79.9274 14.9395C80.6456 19.4852 80.24 24.2121 78.7445 28.5594C78.4066 29.5514 77.173 30.6727 76.5816 29.8102C77.2659 26.0839 77.8996 22.0298 76.1676 18.683C75.7113 17.8032 75.0945 17.001 74.765 16.0608C74.4439 15.181 74.3848 14.2236 74.3679 13.292C74.2919 10.1005 74.6129 6.90896 75.3057 3.79508C75.517 2.85488 75.7536 1.84565 75.3733 0.965831C74.9931 0.0860101 73.6751 -0.379763 73.1005 0.387924C72.9316 0.612192 72.8639 0.905451 72.7964 1.18147C71.7149 5.84797 70.6249 10.6007 70.9798 15.3794C71.2248 18.6313 72.1289 21.8055 72.3317 25.0574C72.5344 28.3093 71.8923 31.8545 69.5688 34.0971C68.4197 30.5692 68.8929 26.7481 68.9267 23.039C68.952 20.1408 68.8337 15.8452 66.3159 14.1459C65.3527 18.5536 65.9272 23.4013 64.8626 27.9557V27.9384Z" fill="#BE1E2D"/>
</svg>
