<svg width="1729" height="157" viewBox="0 0 1729 157" fill="none" xmlns="http://www.w3.org/2000/svg">
<rect width="1728" height="157" transform="translate(1)" fill="#000011"/>
<path d="M1 77.2566C1 77.2566 6.90928 81.3772 11 80.7566C15.5234 80.0703 15.4391 72.8955 20 73.2566C22.9713 73.4918 26.5 77.2566 26.5 77.2566" stroke="#E54646" stroke-width="3"/>
<circle cx="30.5" cy="78.7566" r="5" fill="#E54646"/>
<path d="M153.582 75.3182C151.885 75.3182 150.374 75.0265 149.048 74.4432C147.73 73.8523 146.688 73.0417 145.923 72.0114C145.166 70.9735 144.776 69.7765 144.753 68.4205H149.707C149.738 68.9886 149.923 69.4886 150.264 69.9205C150.613 70.3447 151.075 70.6742 151.651 70.9091C152.226 71.1439 152.874 71.2614 153.594 71.2614C154.344 71.2614 155.007 71.1288 155.582 70.8636C156.158 70.5985 156.609 70.2311 156.935 69.7614C157.26 69.2917 157.423 68.75 157.423 68.1364C157.423 67.5152 157.249 66.9659 156.901 66.4886C156.56 66.0038 156.067 65.625 155.423 65.3523C154.787 65.0795 154.029 64.9432 153.151 64.9432H150.98V61.3295H153.151C153.893 61.3295 154.548 61.2008 155.116 60.9432C155.692 60.6856 156.139 60.3295 156.457 59.875C156.776 59.4129 156.935 58.875 156.935 58.2614C156.935 57.678 156.795 57.1667 156.514 56.7273C156.241 56.2803 155.855 55.9318 155.355 55.6818C154.863 55.4318 154.287 55.3068 153.628 55.3068C152.961 55.3068 152.351 55.428 151.798 55.6705C151.245 55.9053 150.802 56.2424 150.469 56.6818C150.135 57.1212 149.957 57.6364 149.935 58.2273H145.219C145.241 56.8864 145.624 55.7045 146.366 54.6818C147.109 53.6591 148.109 52.8598 149.366 52.2841C150.632 51.7008 152.06 51.4091 153.651 51.4091C155.257 51.4091 156.662 51.7008 157.866 52.2841C159.071 52.8674 160.007 53.6553 160.673 54.6477C161.348 55.6326 161.681 56.7386 161.673 57.9659C161.681 59.2689 161.276 60.3561 160.457 61.2273C159.647 62.0985 158.59 62.6515 157.287 62.8864V63.0682C158.999 63.2879 160.302 63.8826 161.196 64.8523C162.098 65.8144 162.545 67.0189 162.537 68.4659C162.545 69.7917 162.162 70.9697 161.389 72C160.624 73.0303 159.567 73.8409 158.219 74.4318C156.87 75.0227 155.325 75.3182 153.582 75.3182ZM175.199 75.5114C173.244 75.5038 171.563 75.0227 170.153 74.0682C168.752 73.1136 167.672 71.7311 166.915 69.9205C166.165 68.1098 165.794 65.9318 165.801 63.3864C165.801 60.8485 166.176 58.6856 166.926 56.8977C167.684 55.1098 168.763 53.75 170.165 52.8182C171.574 51.8788 173.252 51.4091 175.199 51.4091C177.146 51.4091 178.82 51.8788 180.222 52.8182C181.631 53.7576 182.714 55.1212 183.472 56.9091C184.229 58.6894 184.604 60.8485 184.597 63.3864C184.597 65.9394 184.218 68.1212 183.46 69.9318C182.71 71.7424 181.634 73.125 180.233 74.0795C178.831 75.0341 177.153 75.5114 175.199 75.5114ZM175.199 71.4318C176.532 71.4318 177.597 70.7614 178.392 69.4205C179.188 68.0795 179.581 66.0682 179.574 63.3864C179.574 61.6212 179.392 60.1515 179.028 58.9773C178.672 57.803 178.165 56.9205 177.506 56.3295C176.854 55.7386 176.085 55.4432 175.199 55.4432C173.873 55.4432 172.813 56.1061 172.017 57.4318C171.222 58.7576 170.82 60.7424 170.812 63.3864C170.812 65.1742 170.991 66.6667 171.347 67.8636C171.71 69.053 172.222 69.947 172.881 70.5455C173.54 71.1364 174.312 71.4318 175.199 71.4318ZM196.605 75.3182C194.999 75.3182 193.567 75.0227 192.31 74.4318C191.06 73.8409 190.067 73.0265 189.332 71.9886C188.598 70.9508 188.215 69.7614 188.185 68.4205H192.957C193.01 69.322 193.389 70.053 194.094 70.6136C194.798 71.1742 195.635 71.4545 196.605 71.4545C197.378 71.4545 198.06 71.2841 198.651 70.9432C199.249 70.5947 199.715 70.1136 200.048 69.5C200.389 68.8788 200.56 68.1667 200.56 67.3636C200.56 66.5455 200.385 65.8258 200.037 65.2045C199.696 64.5833 199.223 64.0985 198.616 63.75C198.01 63.4015 197.317 63.2235 196.537 63.2159C195.855 63.2159 195.192 63.3561 194.548 63.6364C193.912 63.9167 193.416 64.2992 193.06 64.7841L188.685 64L189.787 51.7273H204.014V55.75H193.844L193.241 61.5795H193.378C193.787 61.0038 194.404 60.5265 195.23 60.1477C196.056 59.7689 196.98 59.5795 198.003 59.5795C199.404 59.5795 200.654 59.9091 201.753 60.5682C202.851 61.2273 203.719 62.1326 204.355 63.2841C204.991 64.428 205.306 65.7462 205.298 67.2386C205.306 68.8068 204.942 70.2008 204.207 71.4205C203.48 72.6326 202.461 73.5871 201.151 74.2841C199.848 74.9735 198.332 75.3182 196.605 75.3182ZM210.855 75.2955C210.105 75.2955 209.461 75.0303 208.923 74.5C208.393 73.9621 208.128 73.3182 208.128 72.5682C208.128 71.8258 208.393 71.1894 208.923 70.6591C209.461 70.1288 210.105 69.8636 210.855 69.8636C211.582 69.8636 212.219 70.1288 212.764 70.6591C213.31 71.1894 213.582 71.8258 213.582 72.5682C213.582 73.0682 213.454 73.5265 213.196 73.9432C212.946 74.3523 212.616 74.6818 212.207 74.9318C211.798 75.1742 211.348 75.2955 210.855 75.2955ZM224.73 51.7273V75H219.81V56.3977H219.673L214.344 59.7386V55.375L220.105 51.7273H224.73ZM238.682 51.4091C239.879 51.4091 241.03 51.6098 242.136 52.0114C243.25 52.4129 244.242 53.053 245.114 53.9318C245.992 54.8106 246.686 55.9773 247.193 57.4318C247.708 58.8788 247.97 60.6553 247.977 62.7614C247.977 64.7386 247.754 66.5038 247.307 68.0568C246.867 69.6023 246.235 70.9167 245.409 72C244.583 73.0833 243.587 73.9091 242.42 74.4773C241.254 75.0379 239.951 75.3182 238.511 75.3182C236.958 75.3182 235.587 75.0189 234.398 74.4205C233.208 73.8144 232.25 72.9924 231.523 71.9545C230.803 70.9091 230.367 69.7348 230.216 68.4318H235.068C235.258 69.2803 235.655 69.9394 236.261 70.4091C236.867 70.8712 237.617 71.1023 238.511 71.1023C240.027 71.1023 241.178 70.4432 241.966 69.125C242.754 67.7992 243.152 65.9848 243.159 63.6818H243C242.652 64.3636 242.182 64.9508 241.591 65.4432C241 65.928 240.322 66.303 239.557 66.5682C238.799 66.8333 237.992 66.9659 237.136 66.9659C235.765 66.9659 234.542 66.6439 233.466 66C232.39 65.3561 231.542 64.4697 230.92 63.3409C230.299 62.2121 229.989 60.9242 229.989 59.4773C229.981 57.9167 230.341 56.5265 231.068 55.3068C231.795 54.0871 232.811 53.1326 234.114 52.4432C235.424 51.7462 236.947 51.4015 238.682 51.4091ZM238.716 55.2727C237.951 55.2727 237.269 55.4545 236.67 55.8182C236.08 56.1818 235.61 56.6705 235.261 57.2841C234.92 57.8977 234.754 58.5833 234.761 59.3409C234.761 60.1061 234.928 60.7955 235.261 61.4091C235.602 62.0152 236.064 62.5 236.648 62.8636C237.239 63.2197 237.913 63.3977 238.67 63.3977C239.239 63.3977 239.765 63.2917 240.25 63.0795C240.735 62.8674 241.155 62.5758 241.511 62.2045C241.875 61.8258 242.159 61.3902 242.364 60.8977C242.568 60.4053 242.67 59.8826 242.67 59.3295C242.663 58.5947 242.489 57.9205 242.148 57.3068C241.807 56.6932 241.337 56.2008 240.739 55.8295C240.14 55.4583 239.466 55.2727 238.716 55.2727Z" fill="white"/>
<path d="M97.5147 106.699V98.2614H98.9466V106.699H97.5147ZM94.0119 103.196V101.764H102.449V103.196H94.0119ZM115.184 95.9091V109H113.599V97.571H113.522L110.326 99.6932V98.0824L113.599 95.9091H115.184ZM119.3 109.102C118.985 109.102 118.714 108.989 118.489 108.763C118.263 108.538 118.15 108.267 118.15 107.952C118.15 107.636 118.263 107.366 118.489 107.14C118.714 106.914 118.985 106.801 119.3 106.801C119.616 106.801 119.886 106.914 120.112 107.14C120.338 107.366 120.451 107.636 120.451 107.952C120.451 108.161 120.398 108.352 120.291 108.527C120.189 108.702 120.05 108.842 119.876 108.949C119.705 109.051 119.513 109.102 119.3 109.102ZM123.132 109V107.849L127.453 103.119C127.961 102.565 128.378 102.084 128.706 101.675C129.034 101.261 129.277 100.874 129.435 100.511C129.597 100.145 129.678 99.7614 129.678 99.3608C129.678 98.9006 129.567 98.5021 129.346 98.1655C129.128 97.8288 128.83 97.5689 128.451 97.3857C128.071 97.2024 127.645 97.1108 127.172 97.1108C126.669 97.1108 126.23 97.2152 125.855 97.424C125.485 97.6286 125.197 97.9162 124.993 98.2869C124.792 98.6577 124.692 99.0923 124.692 99.5909H123.184C123.184 98.8239 123.36 98.1506 123.714 97.571C124.068 96.9915 124.549 96.5398 125.159 96.2159C125.772 95.892 126.461 95.7301 127.223 95.7301C127.99 95.7301 128.67 95.892 129.262 96.2159C129.855 96.5398 130.319 96.9766 130.656 97.5263C130.993 98.076 131.161 98.6875 131.161 99.3608C131.161 99.8423 131.074 100.313 130.899 100.773C130.728 101.229 130.43 101.739 130.004 102.301C129.582 102.859 128.996 103.541 128.246 104.347L125.306 107.491V107.594H131.391V109H123.132ZM138.199 95.7301C138.735 95.7344 139.272 95.8366 139.809 96.0369C140.346 96.2372 140.836 96.5696 141.279 97.0341C141.723 97.4943 142.078 98.1229 142.347 98.9197C142.615 99.7166 142.75 100.716 142.75 101.918C142.75 103.081 142.639 104.114 142.417 105.018C142.2 105.917 141.885 106.675 141.471 107.293C141.062 107.911 140.564 108.38 139.975 108.7C139.392 109.019 138.731 109.179 137.994 109.179C137.261 109.179 136.607 109.034 136.032 108.744C135.461 108.45 134.992 108.043 134.625 107.523C134.263 106.999 134.031 106.392 133.929 105.702H135.488C135.629 106.303 135.908 106.799 136.326 107.191C136.748 107.579 137.304 107.773 137.994 107.773C139.004 107.773 139.801 107.332 140.385 106.45C140.973 105.567 141.267 104.321 141.267 102.71H141.164C140.926 103.068 140.642 103.377 140.314 103.637C139.986 103.897 139.622 104.097 139.221 104.238C138.821 104.379 138.395 104.449 137.943 104.449C137.193 104.449 136.505 104.263 135.878 103.893C135.256 103.518 134.757 103.004 134.382 102.352C134.012 101.696 133.826 100.946 133.826 100.102C133.826 99.3011 134.005 98.5682 134.363 97.9034C134.725 97.2344 135.233 96.7017 135.885 96.3054C136.541 95.9091 137.312 95.7173 138.199 95.7301ZM138.199 97.1364C137.662 97.1364 137.178 97.2706 136.748 97.5391C136.321 97.8033 135.983 98.1612 135.731 98.6129C135.484 99.0604 135.36 99.5568 135.36 100.102C135.36 100.648 135.48 101.144 135.718 101.592C135.961 102.035 136.292 102.388 136.709 102.653C137.131 102.913 137.61 103.043 138.147 103.043C138.552 103.043 138.929 102.964 139.279 102.806C139.628 102.644 139.933 102.425 140.193 102.148C140.457 101.866 140.664 101.549 140.813 101.195C140.962 100.837 141.037 100.464 141.037 100.077C141.037 99.5653 140.913 99.0859 140.666 98.6385C140.423 98.1911 140.086 97.8288 139.656 97.5518C139.23 97.2749 138.744 97.1364 138.199 97.1364ZM150.888 102.455C150.888 100.844 151.097 99.3629 151.515 98.0121C151.937 96.657 152.537 95.4105 153.317 94.2727H154.647C154.34 94.6946 154.052 95.2145 153.784 95.8324C153.52 96.446 153.287 97.1214 153.087 97.8587C152.887 98.5916 152.729 99.3501 152.614 100.134C152.503 100.918 152.448 101.692 152.448 102.455C152.448 103.469 152.546 104.498 152.742 105.542C152.938 106.586 153.202 107.555 153.535 108.45C153.867 109.345 154.238 110.074 154.647 110.636H153.317C152.537 109.499 151.937 108.254 151.515 106.903C151.097 105.548 150.888 104.065 150.888 102.455ZM160.708 106.699V98.2614H162.14V106.699H160.708ZM157.205 103.196V101.764H165.643V103.196H157.205ZM172.982 109.179C172.019 109.179 171.199 108.917 170.521 108.393C169.844 107.864 169.326 107.099 168.968 106.098C168.61 105.092 168.431 103.878 168.431 102.455C168.431 101.04 168.61 99.8317 168.968 98.8303C169.33 97.8246 169.85 97.0575 170.528 96.5291C171.21 95.9964 172.028 95.7301 172.982 95.7301C173.937 95.7301 174.753 95.9964 175.431 96.5291C176.112 97.0575 176.632 97.8246 176.99 98.8303C177.352 99.8317 177.534 101.04 177.534 102.455C177.534 103.878 177.355 105.092 176.997 106.098C176.639 107.099 176.121 107.864 175.443 108.393C174.766 108.917 173.945 109.179 172.982 109.179ZM172.982 107.773C173.937 107.773 174.678 107.312 175.207 106.392C175.735 105.472 175.999 104.159 175.999 102.455C175.999 101.321 175.878 100.356 175.635 99.5589C175.396 98.7621 175.051 98.1548 174.6 97.7372C174.152 97.3196 173.613 97.1108 172.982 97.1108C172.036 97.1108 171.297 97.5774 170.764 98.5107C170.232 99.4396 169.965 100.754 169.965 102.455C169.965 103.588 170.085 104.551 170.323 105.344C170.562 106.136 170.905 106.739 171.352 107.153C171.804 107.566 172.347 107.773 172.982 107.773ZM180.631 109.102C180.315 109.102 180.045 108.989 179.819 108.763C179.593 108.538 179.48 108.267 179.48 107.952C179.48 107.636 179.593 107.366 179.819 107.14C180.045 106.914 180.315 106.801 180.631 106.801C180.946 106.801 181.216 106.914 181.442 107.14C181.668 107.366 181.781 107.636 181.781 107.952C181.781 108.161 181.728 108.352 181.621 108.527C181.519 108.702 181.381 108.842 181.206 108.949C181.035 109.051 180.844 109.102 180.631 109.102ZM184.156 106.315V105.011L189.909 95.9091H190.855V97.929H190.215L185.869 104.807V104.909H193.616V106.315H184.156ZM190.318 109V105.919V105.312V95.9091H191.826V109H190.318ZM196.011 109V107.849L200.332 103.119C200.839 102.565 201.257 102.084 201.585 101.675C201.913 101.261 202.156 100.874 202.314 100.511C202.476 100.145 202.557 99.7614 202.557 99.3608C202.557 98.9006 202.446 98.5021 202.224 98.1655C202.007 97.8288 201.709 97.5689 201.33 97.3857C200.95 97.2024 200.524 97.1108 200.051 97.1108C199.548 97.1108 199.109 97.2152 198.734 97.424C198.364 97.6286 198.076 97.9162 197.871 98.2869C197.671 98.6577 197.571 99.0923 197.571 99.5909H196.062C196.062 98.8239 196.239 98.1506 196.593 97.571C196.947 96.9915 197.428 96.5398 198.038 96.2159C198.651 95.892 199.339 95.7301 200.102 95.7301C200.869 95.7301 201.549 95.892 202.141 96.2159C202.734 96.5398 203.198 96.9766 203.535 97.5263C203.871 98.076 204.04 98.6875 204.04 99.3608C204.04 99.8423 203.952 100.313 203.778 100.773C203.607 101.229 203.309 101.739 202.883 102.301C202.461 102.859 201.875 103.541 201.125 104.347L198.185 107.491V107.594H204.27V109H196.011ZM213.583 106.545V105.855C213.583 105.378 213.681 104.941 213.877 104.545C214.077 104.144 214.367 103.825 214.746 103.586C215.13 103.343 215.594 103.222 216.14 103.222C216.694 103.222 217.158 103.343 217.533 103.586C217.908 103.825 218.192 104.144 218.384 104.545C218.575 104.941 218.671 105.378 218.671 105.855V106.545C218.671 107.023 218.573 107.462 218.377 107.862C218.185 108.259 217.9 108.578 217.521 108.821C217.146 109.06 216.685 109.179 216.14 109.179C215.586 109.179 215.119 109.06 214.74 108.821C214.361 108.578 214.073 108.259 213.877 107.862C213.681 107.462 213.583 107.023 213.583 106.545ZM214.887 105.855V106.545C214.887 106.942 214.981 107.298 215.168 107.613C215.356 107.924 215.68 108.08 216.14 108.08C216.587 108.08 216.903 107.924 217.086 107.613C217.273 107.298 217.367 106.942 217.367 106.545V105.855C217.367 105.459 217.278 105.105 217.099 104.794C216.92 104.479 216.6 104.321 216.14 104.321C215.692 104.321 215.371 104.479 215.175 104.794C214.983 105.105 214.887 105.459 214.887 105.855ZM207.063 99.054V98.3636C207.063 97.8864 207.161 97.4496 207.357 97.0533C207.558 96.6527 207.847 96.3331 208.227 96.0945C208.61 95.8516 209.075 95.7301 209.62 95.7301C210.174 95.7301 210.638 95.8516 211.013 96.0945C211.388 96.3331 211.672 96.6527 211.864 97.0533C212.055 97.4496 212.151 97.8864 212.151 98.3636V99.054C212.151 99.5312 212.053 99.9702 211.857 100.371C211.665 100.767 211.38 101.087 211.001 101.33C210.626 101.568 210.165 101.688 209.62 101.688C209.066 101.688 208.599 101.568 208.22 101.33C207.841 101.087 207.553 100.767 207.357 100.371C207.161 99.9702 207.063 99.5312 207.063 99.054ZM208.367 98.3636V99.054C208.367 99.4503 208.461 99.8061 208.648 100.121C208.836 100.433 209.16 100.588 209.62 100.588C210.067 100.588 210.383 100.433 210.566 100.121C210.754 99.8061 210.847 99.4503 210.847 99.054V98.3636C210.847 97.9673 210.758 97.6136 210.579 97.3026C210.4 96.9872 210.08 96.8295 209.62 96.8295C209.173 96.8295 208.851 96.9872 208.655 97.3026C208.463 97.6136 208.367 97.9673 208.367 98.3636ZM207.549 109L216.549 95.9091H218.006L209.006 109H207.549ZM224.782 102.455C224.782 104.065 224.571 105.548 224.149 106.903C223.732 108.254 223.133 109.499 222.353 110.636H221.023C221.33 110.214 221.616 109.695 221.88 109.077C222.148 108.463 222.383 107.79 222.583 107.057C222.783 106.32 222.939 105.559 223.05 104.775C223.165 103.987 223.222 103.213 223.222 102.455C223.222 101.44 223.124 100.411 222.928 99.3672C222.732 98.3232 222.468 97.3537 222.136 96.4588C221.803 95.5639 221.433 94.8352 221.023 94.2727H222.353C223.133 95.4105 223.732 96.657 224.149 98.0121C224.571 99.3629 224.782 100.844 224.782 102.455Z" fill="#E54646"/>
<path d="M342.148 58.4205C342.057 57.5038 341.667 56.7917 340.977 56.2841C340.288 55.7765 339.352 55.5227 338.17 55.5227C337.367 55.5227 336.689 55.6364 336.136 55.8636C335.583 56.0833 335.159 56.3902 334.864 56.7841C334.576 57.178 334.432 57.625 334.432 58.125C334.417 58.5417 334.504 58.9053 334.693 59.2159C334.89 59.5265 335.159 59.7955 335.5 60.0227C335.841 60.2424 336.235 60.4356 336.682 60.6023C337.129 60.7614 337.606 60.8977 338.114 61.0114L340.205 61.5114C341.22 61.7386 342.152 62.0417 343 62.4205C343.848 62.7992 344.583 63.2652 345.205 63.8182C345.826 64.3712 346.307 65.0227 346.648 65.7727C346.996 66.5227 347.174 67.3826 347.182 68.3523C347.174 69.7765 346.811 71.0114 346.091 72.0568C345.379 73.0947 344.348 73.9015 343 74.4773C341.659 75.0455 340.042 75.3295 338.148 75.3295C336.269 75.3295 334.633 75.0417 333.239 74.4659C331.852 73.8902 330.769 73.0379 329.989 71.9091C329.216 70.7727 328.811 69.3674 328.773 67.6932H333.534C333.587 68.4735 333.811 69.125 334.205 69.6477C334.606 70.1629 335.14 70.553 335.807 70.8182C336.481 71.0758 337.242 71.2045 338.091 71.2045C338.924 71.2045 339.648 71.0833 340.261 70.8409C340.883 70.5985 341.364 70.2614 341.705 69.8295C342.045 69.3977 342.216 68.9015 342.216 68.3409C342.216 67.8182 342.061 67.3788 341.75 67.0227C341.447 66.6667 341 66.3636 340.409 66.1136C339.826 65.8636 339.11 65.6364 338.261 65.4318L335.727 64.7955C333.765 64.3182 332.216 63.572 331.08 62.5568C329.943 61.5417 329.379 60.1742 329.386 58.4545C329.379 57.0455 329.754 55.8144 330.511 54.7614C331.277 53.7083 332.326 52.8864 333.659 52.2955C334.992 51.7045 336.508 51.4091 338.205 51.4091C339.932 51.4091 341.439 51.7045 342.727 52.2955C344.023 52.8864 345.03 53.7083 345.75 54.7614C346.47 55.8144 346.841 57.0341 346.864 58.4205H342.148ZM350.491 75V51.7273H359.81C361.522 51.7273 362.95 51.9811 364.094 52.4886C365.238 52.9962 366.098 53.7008 366.673 54.6023C367.249 55.4962 367.537 56.5265 367.537 57.6932C367.537 58.6023 367.355 59.4015 366.991 60.0909C366.628 60.7727 366.128 61.3333 365.491 61.7727C364.863 62.2045 364.143 62.5114 363.332 62.6932V62.9205C364.219 62.9583 365.048 63.2083 365.821 63.6705C366.601 64.1326 367.234 64.7803 367.719 65.6136C368.204 66.4394 368.446 67.4242 368.446 68.5682C368.446 69.803 368.139 70.9053 367.526 71.875C366.92 72.8371 366.022 73.5985 364.832 74.1591C363.643 74.7197 362.177 75 360.435 75H350.491ZM355.412 70.9773H359.423C360.795 70.9773 361.795 70.7159 362.423 70.1932C363.052 69.6629 363.366 68.9583 363.366 68.0795C363.366 67.4356 363.211 66.8674 362.901 66.375C362.59 65.8826 362.147 65.4962 361.571 65.2159C361.003 64.9356 360.325 64.7955 359.537 64.7955H355.412V70.9773ZM355.412 61.4659H359.06C359.734 61.4659 360.332 61.3485 360.855 61.1136C361.385 60.8712 361.802 60.5303 362.105 60.0909C362.416 59.6515 362.571 59.125 362.571 58.5114C362.571 57.6705 362.272 56.9924 361.673 56.4773C361.082 55.9621 360.241 55.7045 359.151 55.7045H355.412V61.4659ZM386.023 51.7273H390.943V66.8409C390.943 68.5379 390.538 70.0227 389.727 71.2955C388.924 72.5682 387.799 73.5606 386.352 74.2727C384.905 74.9773 383.22 75.3295 381.295 75.3295C379.364 75.3295 377.674 74.9773 376.227 74.2727C374.78 73.5606 373.655 72.5682 372.852 71.2955C372.049 70.0227 371.648 68.5379 371.648 66.8409V51.7273H376.568V66.4205C376.568 67.3068 376.761 68.0947 377.148 68.7841C377.542 69.4735 378.095 70.0152 378.807 70.4091C379.519 70.803 380.348 71 381.295 71C382.25 71 383.08 70.803 383.784 70.4091C384.496 70.0152 385.045 69.4735 385.432 68.7841C385.826 68.0947 386.023 67.3068 386.023 66.4205V51.7273ZM399.605 51.7273L404.298 59.6591H404.48L409.196 51.7273H414.753L407.651 63.3636L414.912 75H409.253L404.48 67.0568H404.298L399.526 75H393.889L401.173 63.3636L394.026 51.7273H399.605Z" fill="white"/>
<path d="M336.244 99.1818C336.168 98.5341 335.857 98.0312 335.311 97.6733C334.766 97.3153 334.097 97.1364 333.304 97.1364C332.724 97.1364 332.217 97.2301 331.783 97.4176C331.352 97.6051 331.016 97.8629 330.773 98.1911C330.534 98.5192 330.415 98.892 330.415 99.3097C330.415 99.6591 330.498 99.9595 330.664 100.211C330.835 100.458 331.052 100.665 331.316 100.831C331.58 100.993 331.857 101.127 332.147 101.234C332.437 101.336 332.703 101.419 332.946 101.483L334.276 101.841C334.616 101.93 334.996 102.054 335.413 102.212C335.835 102.369 336.238 102.585 336.621 102.857C337.009 103.126 337.329 103.471 337.58 103.893C337.832 104.315 337.957 104.832 337.957 105.446C337.957 106.153 337.772 106.793 337.401 107.364C337.035 107.935 336.498 108.388 335.79 108.725C335.087 109.062 334.233 109.23 333.227 109.23C332.29 109.23 331.478 109.079 330.792 108.776C330.11 108.474 329.573 108.052 329.181 107.511C328.793 106.969 328.574 106.341 328.523 105.625H330.159C330.202 106.119 330.368 106.528 330.658 106.852C330.952 107.172 331.322 107.411 331.77 107.568C332.222 107.722 332.707 107.798 333.227 107.798C333.832 107.798 334.376 107.7 334.857 107.504C335.339 107.304 335.72 107.027 336.001 106.673C336.283 106.315 336.423 105.898 336.423 105.42C336.423 104.986 336.302 104.632 336.059 104.359C335.816 104.087 335.496 103.865 335.1 103.695C334.704 103.524 334.276 103.375 333.815 103.247L332.205 102.787C331.182 102.493 330.372 102.073 329.776 101.528C329.179 100.982 328.881 100.268 328.881 99.3864C328.881 98.6534 329.079 98.0142 329.475 97.4688C329.876 96.919 330.413 96.4929 331.086 96.1903C331.763 95.8835 332.52 95.7301 333.355 95.7301C334.199 95.7301 334.949 95.8814 335.605 96.1839C336.261 96.4822 336.781 96.8913 337.165 97.4112C337.553 97.9311 337.757 98.5213 337.778 99.1818H336.244ZM344.629 99.1818V100.46H339.541V99.1818H344.629ZM341.024 96.8295H342.532V106.188C342.532 106.614 342.594 106.933 342.718 107.146C342.846 107.355 343.008 107.496 343.204 107.568C343.404 107.636 343.615 107.67 343.836 107.67C344.003 107.67 344.139 107.662 344.246 107.645C344.352 107.624 344.437 107.607 344.501 107.594L344.808 108.949C344.706 108.987 344.563 109.026 344.38 109.064C344.197 109.107 343.964 109.128 343.683 109.128C343.257 109.128 342.839 109.036 342.43 108.853C342.025 108.67 341.689 108.391 341.42 108.016C341.156 107.641 341.024 107.168 341.024 106.597V96.8295ZM349.787 109.23C349.165 109.23 348.601 109.113 348.094 108.879C347.586 108.64 347.184 108.297 346.885 107.849C346.587 107.398 346.438 106.852 346.438 106.213C346.438 105.651 346.549 105.195 346.77 104.845C346.992 104.491 347.288 104.214 347.659 104.014C348.03 103.814 348.439 103.665 348.886 103.567C349.338 103.464 349.792 103.384 350.248 103.324C350.844 103.247 351.328 103.19 351.699 103.151C352.074 103.109 352.346 103.038 352.517 102.94C352.692 102.842 352.779 102.672 352.779 102.429V102.378C352.779 101.747 352.606 101.257 352.261 100.908C351.92 100.558 351.403 100.384 350.708 100.384C349.988 100.384 349.423 100.541 349.014 100.857C348.605 101.172 348.317 101.509 348.151 101.866L346.719 101.355C346.975 100.759 347.316 100.294 347.742 99.9616C348.172 99.625 348.641 99.3906 349.148 99.2585C349.66 99.1222 350.162 99.054 350.657 99.054C350.972 99.054 351.334 99.0923 351.743 99.169C352.157 99.2415 352.555 99.3928 352.939 99.6229C353.327 99.853 353.648 100.2 353.904 100.665C354.16 101.129 354.287 101.751 354.287 102.531V109H352.779V107.67H352.702C352.6 107.884 352.43 108.112 352.191 108.354C351.952 108.597 351.635 108.804 351.238 108.974C350.842 109.145 350.358 109.23 349.787 109.23ZM350.018 107.875C350.614 107.875 351.117 107.758 351.526 107.523C351.939 107.289 352.251 106.987 352.459 106.616C352.672 106.245 352.779 105.855 352.779 105.446V104.065C352.715 104.142 352.574 104.212 352.357 104.276C352.144 104.336 351.897 104.389 351.616 104.436C351.339 104.479 351.068 104.517 350.804 104.551C350.544 104.581 350.333 104.607 350.171 104.628C349.779 104.679 349.412 104.762 349.072 104.877C348.735 104.988 348.462 105.156 348.253 105.382C348.049 105.604 347.947 105.906 347.947 106.29C347.947 106.814 348.14 107.21 348.528 107.479C348.92 107.743 349.417 107.875 350.018 107.875ZM357.041 109V99.1818H358.498V100.665H358.6C358.779 100.179 359.103 99.7848 359.572 99.4822C360.041 99.1797 360.569 99.0284 361.157 99.0284C361.268 99.0284 361.407 99.0305 361.573 99.0348C361.739 99.0391 361.865 99.0455 361.95 99.054V100.588C361.899 100.575 361.782 100.556 361.598 100.531C361.419 100.501 361.23 100.486 361.029 100.486C360.552 100.486 360.126 100.586 359.751 100.786C359.38 100.982 359.086 101.255 358.869 101.604C358.656 101.95 358.549 102.344 358.549 102.787V109H357.041ZM363.943 109V95.9091H365.451V100.741H365.579C365.69 100.571 365.843 100.354 366.039 100.089C366.24 99.821 366.525 99.5824 366.896 99.3736C367.271 99.1605 367.778 99.054 368.417 99.054C369.244 99.054 369.972 99.2607 370.603 99.674C371.234 100.087 371.726 100.673 372.08 101.432C372.433 102.19 372.61 103.085 372.61 104.116C372.61 105.156 372.433 106.058 372.08 106.82C371.726 107.579 371.236 108.167 370.61 108.585C369.983 108.998 369.261 109.205 368.443 109.205C367.812 109.205 367.307 109.1 366.928 108.891C366.548 108.678 366.257 108.437 366.052 108.169C365.847 107.896 365.69 107.67 365.579 107.491H365.4V109H363.943ZM365.426 104.091C365.426 104.832 365.534 105.487 365.752 106.053C365.969 106.616 366.286 107.057 366.704 107.376C367.122 107.692 367.633 107.849 368.238 107.849C368.869 107.849 369.395 107.683 369.817 107.351C370.243 107.014 370.563 106.562 370.776 105.996C370.993 105.425 371.102 104.79 371.102 104.091C371.102 103.401 370.995 102.778 370.782 102.224C370.573 101.666 370.256 101.225 369.83 100.901C369.408 100.573 368.877 100.409 368.238 100.409C367.624 100.409 367.109 100.565 366.691 100.876C366.274 101.183 365.958 101.613 365.745 102.167C365.532 102.717 365.426 103.358 365.426 104.091ZM381.105 104.986V99.1818H382.614V109H381.105V107.338H381.003C380.773 107.837 380.415 108.261 379.929 108.61C379.443 108.955 378.83 109.128 378.088 109.128C377.475 109.128 376.929 108.994 376.452 108.725C375.975 108.452 375.6 108.043 375.327 107.498C375.054 106.948 374.918 106.256 374.918 105.42V99.1818H376.426V105.318C376.426 106.034 376.627 106.605 377.027 107.031C377.432 107.457 377.948 107.67 378.574 107.67C378.949 107.67 379.33 107.575 379.718 107.383C380.11 107.191 380.438 106.897 380.703 106.501C380.971 106.104 381.105 105.599 381.105 104.986ZM389.365 109.205C388.445 109.205 387.652 108.987 386.988 108.553C386.323 108.118 385.811 107.519 385.453 106.756C385.096 105.994 384.917 105.122 384.917 104.142C384.917 103.145 385.1 102.265 385.466 101.502C385.837 100.735 386.353 100.136 387.013 99.706C387.678 99.2713 388.453 99.054 389.34 99.054C390.03 99.054 390.652 99.1818 391.206 99.4375C391.76 99.6932 392.214 100.051 392.568 100.511C392.922 100.972 393.141 101.509 393.226 102.122H391.718C391.603 101.675 391.347 101.278 390.951 100.933C390.559 100.584 390.03 100.409 389.365 100.409C388.777 100.409 388.262 100.562 387.819 100.869C387.38 101.172 387.037 101.6 386.789 102.154C386.547 102.704 386.425 103.349 386.425 104.091C386.425 104.849 386.544 105.51 386.783 106.072C387.026 106.635 387.367 107.072 387.806 107.383C388.249 107.694 388.769 107.849 389.365 107.849C389.757 107.849 390.113 107.781 390.433 107.645C390.752 107.509 391.023 107.312 391.245 107.057C391.466 106.801 391.624 106.494 391.718 106.136H393.226C393.141 106.716 392.93 107.238 392.593 107.702C392.261 108.163 391.82 108.529 391.27 108.802C390.725 109.07 390.09 109.205 389.365 109.205ZM396.838 105.42L396.812 103.554H397.119L401.414 99.1818H403.281L398.704 103.81H398.576L396.838 105.42ZM395.431 109V95.9091H396.94V109H395.431ZM401.67 109L397.835 104.142L398.909 103.094L403.588 109H401.67ZM412.177 101.381L410.822 101.764C410.737 101.538 410.611 101.319 410.445 101.106C410.283 100.888 410.061 100.71 409.78 100.569C409.499 100.428 409.139 100.358 408.7 100.358C408.099 100.358 407.598 100.496 407.198 100.773C406.801 101.046 406.603 101.393 406.603 101.815C406.603 102.19 406.74 102.487 407.012 102.704C407.285 102.921 407.711 103.102 408.291 103.247L409.748 103.605C410.626 103.818 411.28 104.144 411.71 104.583C412.141 105.018 412.356 105.578 412.356 106.264C412.356 106.827 412.194 107.33 411.87 107.773C411.551 108.216 411.103 108.565 410.528 108.821C409.953 109.077 409.284 109.205 408.521 109.205C407.519 109.205 406.691 108.987 406.034 108.553C405.378 108.118 404.963 107.483 404.788 106.648L406.22 106.29C406.356 106.818 406.614 107.214 406.993 107.479C407.377 107.743 407.877 107.875 408.495 107.875C409.198 107.875 409.757 107.726 410.17 107.428C410.588 107.125 410.796 106.763 410.796 106.341C410.796 106 410.677 105.714 410.438 105.484C410.2 105.25 409.833 105.075 409.339 104.96L407.703 104.577C406.803 104.364 406.143 104.033 405.721 103.586C405.303 103.134 405.095 102.57 405.095 101.892C405.095 101.338 405.25 100.848 405.561 100.422C405.877 99.9957 406.305 99.6612 406.846 99.4183C407.392 99.1754 408.009 99.054 408.7 99.054C409.671 99.054 410.434 99.267 410.988 99.6932C411.546 100.119 411.943 100.682 412.177 101.381ZM430.428 100H428.843C428.749 99.544 428.585 99.1435 428.35 98.7983C428.12 98.4531 427.839 98.1634 427.507 97.929C427.179 97.6903 426.814 97.5114 426.414 97.392C426.013 97.2727 425.596 97.2131 425.161 97.2131C424.368 97.2131 423.65 97.4134 423.007 97.8139C422.368 98.2145 421.858 98.8047 421.479 99.5845C421.104 100.364 420.917 101.321 420.917 102.455C420.917 103.588 421.104 104.545 421.479 105.325C421.858 106.104 422.368 106.695 423.007 107.095C423.65 107.496 424.368 107.696 425.161 107.696C425.596 107.696 426.013 107.636 426.414 107.517C426.814 107.398 427.179 107.221 427.507 106.987C427.839 106.748 428.12 106.456 428.35 106.111C428.585 105.761 428.749 105.361 428.843 104.909H430.428C430.309 105.578 430.091 106.177 429.776 106.705C429.461 107.234 429.069 107.683 428.6 108.054C428.131 108.42 427.605 108.7 427.021 108.891C426.441 109.083 425.821 109.179 425.161 109.179C424.044 109.179 423.051 108.906 422.182 108.361C421.313 107.815 420.629 107.04 420.13 106.034C419.632 105.028 419.382 103.835 419.382 102.455C419.382 101.074 419.632 99.8807 420.13 98.875C420.629 97.8693 421.313 97.0938 422.182 96.5483C423.051 96.0028 424.044 95.7301 425.161 95.7301C425.821 95.7301 426.441 95.826 427.021 96.0178C427.605 96.2095 428.131 96.4908 428.6 96.8615C429.069 97.228 429.461 97.6754 429.776 98.2038C430.091 98.728 430.309 99.3267 430.428 100ZM433.884 109.102C433.569 109.102 433.298 108.989 433.073 108.763C432.847 108.538 432.734 108.267 432.734 107.952C432.734 107.636 432.847 107.366 433.073 107.14C433.298 106.914 433.569 106.801 433.884 106.801C434.2 106.801 434.47 106.914 434.696 107.14C434.922 107.366 435.035 107.636 435.035 107.952C435.035 108.161 434.982 108.352 434.875 108.527C434.773 108.702 434.634 108.842 434.46 108.949C434.289 109.051 434.097 109.102 433.884 109.102ZM438.841 109.102C438.526 109.102 438.256 108.989 438.03 108.763C437.804 108.538 437.691 108.267 437.691 107.952C437.691 107.636 437.804 107.366 438.03 107.14C438.256 106.914 438.526 106.801 438.841 106.801C439.157 106.801 439.427 106.914 439.653 107.14C439.879 107.366 439.992 107.636 439.992 107.952C439.992 108.161 439.939 108.352 439.832 108.527C439.73 108.702 439.591 108.842 439.417 108.949C439.246 109.051 439.055 109.102 438.841 109.102ZM443.798 109.102C443.483 109.102 443.213 108.989 442.987 108.763C442.761 108.538 442.648 108.267 442.648 107.952C442.648 107.636 442.761 107.366 442.987 107.14C443.213 106.914 443.483 106.801 443.798 106.801C444.114 106.801 444.384 106.914 444.61 107.14C444.836 107.366 444.949 107.636 444.949 107.952C444.949 108.161 444.896 108.352 444.789 108.527C444.687 108.702 444.548 108.842 444.374 108.949C444.203 109.051 444.012 109.102 443.798 109.102Z" fill="white"/>
<circle cx="674.5" cy="76.9863" r="5" fill="#E54646"/>
<path d="M564.5 81.4863C564.5 81.4863 569.149 76.4863 573 76.4863C576.851 76.4863 577.741 80.647 581.5 81.4863C584.168 82.082 585.798 81.0739 588.5 81.4863C591.125 81.8869 592.344 83.4863 595 83.4863C597.656 83.4863 598.848 81.6283 601.5 81.4863C604.716 81.314 606.376 82.7052 609.5 83.4863C611.843 84.0721 613.095 85.2041 615.5 84.9863C618.371 84.7263 620 80.8196 622 81.4863C624 82.1529 630 81.4863 630 81.4863C630 81.4863 634.5 78.4863 636.5 78.4863C638.1 78.4863 644.833 78.4863 648 78.4863C649.167 77.4863 652 76.0863 654 78.4863C656.5 81.4863 663 81.4863 665 81.4863C667 81.4863 667.5 78.4863 670.5 78.4863" stroke="#E54646" stroke-width="3"/>
<path d="M854.699 54.2273V77.5H849.778V58.8977H849.642L844.312 62.2386V57.875L850.074 54.2273H854.699ZM870.355 54.2273V77.5H865.435V58.8977H865.298L859.969 62.2386V57.875L865.73 54.2273H870.355ZM886.011 54.2273V77.5H881.091V58.8977H880.955L875.625 62.2386V57.875L881.386 54.2273H886.011ZM893.168 77.7955C892.418 77.7955 891.774 77.5303 891.236 77C890.705 76.4621 890.44 75.8182 890.44 75.0682C890.44 74.3258 890.705 73.6894 891.236 73.1591C891.774 72.6288 892.418 72.3636 893.168 72.3636C893.895 72.3636 894.531 72.6288 895.077 73.1591C895.622 73.6894 895.895 74.3258 895.895 75.0682C895.895 75.5682 895.766 76.0265 895.509 76.4432C895.259 76.8523 894.929 77.1818 894.52 77.4318C894.111 77.6742 893.66 77.7955 893.168 77.7955ZM908.136 77.8182C906.53 77.8182 905.098 77.5227 903.841 76.9318C902.591 76.3409 901.598 75.5265 900.864 74.4886C900.129 73.4508 899.746 72.2614 899.716 70.9205H904.489C904.542 71.822 904.92 72.553 905.625 73.1136C906.33 73.6742 907.167 73.9545 908.136 73.9545C908.909 73.9545 909.591 73.7841 910.182 73.4432C910.78 73.0947 911.246 72.6136 911.58 72C911.92 71.3788 912.091 70.6667 912.091 69.8636C912.091 69.0455 911.917 68.3258 911.568 67.7045C911.227 67.0833 910.754 66.5985 910.148 66.25C909.542 65.9015 908.848 65.7235 908.068 65.7159C907.386 65.7159 906.723 65.8561 906.08 66.1364C905.443 66.4167 904.947 66.7992 904.591 67.2841L900.216 66.5L901.318 54.2273H915.545V58.25H905.375L904.773 64.0795H904.909C905.318 63.5038 905.936 63.0265 906.761 62.6477C907.587 62.2689 908.511 62.0795 909.534 62.0795C910.936 62.0795 912.186 62.4091 913.284 63.0682C914.383 63.7273 915.25 64.6326 915.886 65.7841C916.523 66.928 916.837 68.2462 916.83 69.7386C916.837 71.3068 916.473 72.7008 915.739 73.9205C915.011 75.1326 913.992 76.0871 912.682 76.7841C911.379 77.4735 909.864 77.8182 908.136 77.8182ZM929.193 77.8182C927.996 77.8106 926.841 77.6098 925.727 77.2159C924.621 76.822 923.629 76.1818 922.75 75.2955C921.871 74.4091 921.174 73.2348 920.659 71.7727C920.152 70.3106 919.898 68.5152 919.898 66.3864C919.905 64.4318 920.129 62.6856 920.568 61.1477C921.015 59.6023 921.652 58.2917 922.477 57.2159C923.311 56.1402 924.307 55.322 925.466 54.7614C926.625 54.1932 927.924 53.9091 929.364 53.9091C930.917 53.9091 932.288 54.2121 933.477 54.8182C934.667 55.4167 935.621 56.2311 936.341 57.2614C937.068 58.2917 937.508 59.447 937.659 60.7273H932.807C932.617 59.9167 932.22 59.2803 931.614 58.8182C931.008 58.3561 930.258 58.125 929.364 58.125C927.848 58.125 926.697 58.7841 925.909 60.1023C925.129 61.4205 924.731 63.2121 924.716 65.4773H924.875C925.223 64.7879 925.693 64.2008 926.284 63.7159C926.883 63.2235 927.561 62.8485 928.318 62.5909C929.083 62.3258 929.89 62.1932 930.739 62.1932C932.117 62.1932 933.345 62.5189 934.42 63.1705C935.496 63.8144 936.345 64.7008 936.966 65.8295C937.587 66.9583 937.898 68.25 937.898 69.7045C937.898 71.2803 937.53 72.6818 936.795 73.9091C936.068 75.1364 935.049 76.0985 933.739 76.7955C932.436 77.4848 930.92 77.8258 929.193 77.8182ZM929.17 73.9545C929.928 73.9545 930.606 73.7727 931.205 73.4091C931.803 73.0455 932.273 72.553 932.614 71.9318C932.955 71.3106 933.125 70.6136 933.125 69.8409C933.125 69.0682 932.955 68.375 932.614 67.7614C932.28 67.1477 931.818 66.6591 931.227 66.2955C930.636 65.9318 929.962 65.75 929.205 65.75C928.636 65.75 928.11 65.8561 927.625 66.0682C927.148 66.2803 926.727 66.5758 926.364 66.9545C926.008 67.3333 925.727 67.7727 925.523 68.2727C925.318 68.7652 925.216 69.2917 925.216 69.8523C925.216 70.6023 925.386 71.2879 925.727 71.9091C926.076 72.5303 926.545 73.0265 927.136 73.3977C927.735 73.7689 928.413 73.9545 929.17 73.9545Z" fill="white"/>
<path d="M818.821 104.199V95.7614H820.253V104.199H818.821ZM815.319 100.696V99.2642H823.756V100.696H815.319ZM836.158 106.679C835.195 106.679 834.375 106.417 833.697 105.893C833.02 105.364 832.502 104.599 832.144 103.598C831.786 102.592 831.607 101.378 831.607 99.9545C831.607 98.5398 831.786 97.3317 832.144 96.3303C832.506 95.3246 833.026 94.5575 833.704 94.0291C834.385 93.4964 835.204 93.2301 836.158 93.2301C837.113 93.2301 837.929 93.4964 838.606 94.0291C839.288 94.5575 839.808 95.3246 840.166 96.3303C840.528 97.3317 840.709 98.5398 840.709 99.9545C840.709 101.378 840.53 102.592 840.172 103.598C839.814 104.599 839.297 105.364 838.619 105.893C837.942 106.417 837.121 106.679 836.158 106.679ZM836.158 105.273C837.113 105.273 837.854 104.812 838.383 103.892C838.911 102.972 839.175 101.659 839.175 99.9545C839.175 98.821 839.054 97.8558 838.811 97.0589C838.572 96.2621 838.227 95.6548 837.775 95.2372C837.328 94.8196 836.789 94.6108 836.158 94.6108C835.212 94.6108 834.473 95.0774 833.94 96.0107C833.407 96.9396 833.141 98.2543 833.141 99.9545C833.141 101.088 833.26 102.051 833.499 102.844C833.738 103.636 834.081 104.239 834.528 104.653C834.98 105.066 835.523 105.273 836.158 105.273ZM843.806 106.602C843.491 106.602 843.22 106.489 842.994 106.263C842.769 106.038 842.656 105.767 842.656 105.452C842.656 105.136 842.769 104.866 842.994 104.64C843.22 104.414 843.491 104.301 843.806 104.301C844.122 104.301 844.392 104.414 844.618 104.64C844.844 104.866 844.957 105.136 844.957 105.452C844.957 105.661 844.904 105.852 844.797 106.027C844.695 106.202 844.556 106.342 844.382 106.449C844.211 106.551 844.019 106.602 843.806 106.602ZM850.676 93.4091V106.5H849.091V95.071H849.014L845.818 97.1932V95.5824L849.091 93.4091H850.676ZM854.441 106.5V105.349L858.762 100.619C859.269 100.065 859.687 99.5838 860.015 99.1747C860.343 98.7614 860.586 98.3736 860.744 98.0114C860.906 97.6449 860.987 97.2614 860.987 96.8608C860.987 96.4006 860.876 96.0021 860.654 95.6655C860.437 95.3288 860.138 95.0689 859.759 94.8857C859.38 94.7024 858.954 94.6108 858.481 94.6108C857.978 94.6108 857.539 94.7152 857.164 94.924C856.793 95.1286 856.506 95.4162 856.301 95.7869C856.101 96.1577 856.001 96.5923 856.001 97.0909H854.492C854.492 96.3239 854.669 95.6506 855.023 95.071C855.376 94.4915 855.858 94.0398 856.467 93.7159C857.081 93.392 857.769 93.2301 858.532 93.2301C859.299 93.2301 859.979 93.392 860.571 93.7159C861.163 94.0398 861.628 94.4766 861.964 95.0263C862.301 95.576 862.469 96.1875 862.469 96.8608C862.469 97.3423 862.382 97.8132 862.207 98.2734C862.037 98.7294 861.739 99.2386 861.312 99.8011C860.891 100.359 860.305 101.041 859.555 101.847L856.614 104.991V105.094H862.7V106.5H854.441ZM870.964 99.9545C870.964 98.3437 871.173 96.8629 871.591 95.5121C872.013 94.157 872.614 92.9105 873.393 91.7727H874.723C874.416 92.1946 874.129 92.7145 873.86 93.3324C873.596 93.946 873.364 94.6214 873.163 95.3587C872.963 96.0916 872.805 96.8501 872.69 97.6342C872.58 98.4183 872.524 99.1918 872.524 99.9545C872.524 100.969 872.622 101.998 872.818 103.042C873.014 104.086 873.278 105.055 873.611 105.95C873.943 106.845 874.314 107.574 874.723 108.136H873.393C872.614 106.999 872.013 105.754 871.591 104.403C871.173 103.048 870.964 101.565 870.964 99.9545ZM880.784 104.199V95.7614H882.216V104.199H880.784ZM877.281 100.696V99.2642H885.719V100.696H877.281ZM893.059 106.679C892.096 106.679 891.275 106.417 890.598 105.893C889.92 105.364 889.402 104.599 889.044 103.598C888.686 102.592 888.507 101.378 888.507 99.9545C888.507 98.5398 888.686 97.3317 889.044 96.3303C889.407 95.3246 889.926 94.5575 890.604 94.0291C891.286 93.4964 892.104 93.2301 893.059 93.2301C894.013 93.2301 894.829 93.4964 895.507 94.0291C896.189 94.5575 896.708 95.3246 897.066 96.3303C897.429 97.3317 897.61 98.5398 897.61 99.9545C897.61 101.378 897.431 102.592 897.073 103.598C896.715 104.599 896.197 105.364 895.52 105.893C894.842 106.417 894.022 106.679 893.059 106.679ZM893.059 105.273C894.013 105.273 894.755 104.812 895.283 103.892C895.811 102.972 896.076 101.659 896.076 99.9545C896.076 98.821 895.954 97.8558 895.711 97.0589C895.473 96.2621 895.127 95.6548 894.676 95.2372C894.228 94.8196 893.689 94.6108 893.059 94.6108C892.113 94.6108 891.373 95.0774 890.841 96.0107C890.308 96.9396 890.042 98.2543 890.042 99.9545C890.042 101.088 890.161 102.051 890.4 102.844C890.638 103.636 890.981 104.239 891.429 104.653C891.88 105.066 892.424 105.273 893.059 105.273ZM900.707 106.602C900.391 106.602 900.121 106.489 899.895 106.263C899.669 106.038 899.556 105.767 899.556 105.452C899.556 105.136 899.669 104.866 899.895 104.64C900.121 104.414 900.391 104.301 900.707 104.301C901.022 104.301 901.293 104.414 901.518 104.64C901.744 104.866 901.857 105.136 901.857 105.452C901.857 105.661 901.804 105.852 901.697 106.027C901.595 106.202 901.457 106.342 901.282 106.449C901.112 106.551 900.92 106.602 900.707 106.602ZM907.577 93.4091V106.5H905.991V95.071H905.915L902.719 97.1932V95.5824L905.991 93.4091H907.577ZM915.944 93.4091V106.5H914.358V95.071H914.282L911.086 97.1932V95.5824L914.358 93.4091H915.944ZM926.382 104.045V103.355C926.382 102.878 926.48 102.441 926.676 102.045C926.876 101.644 927.166 101.325 927.545 101.086C927.929 100.843 928.393 100.722 928.939 100.722C929.493 100.722 929.957 100.843 930.332 101.086C930.707 101.325 930.991 101.644 931.182 102.045C931.374 102.441 931.47 102.878 931.47 103.355V104.045C931.47 104.523 931.372 104.962 931.176 105.362C930.984 105.759 930.699 106.078 930.319 106.321C929.944 106.56 929.484 106.679 928.939 106.679C928.385 106.679 927.918 106.56 927.539 106.321C927.16 106.078 926.872 105.759 926.676 105.362C926.48 104.962 926.382 104.523 926.382 104.045ZM927.686 103.355V104.045C927.686 104.442 927.78 104.798 927.967 105.113C928.155 105.424 928.479 105.58 928.939 105.58C929.386 105.58 929.702 105.424 929.885 105.113C930.072 104.798 930.166 104.442 930.166 104.045V103.355C930.166 102.959 930.077 102.605 929.898 102.294C929.719 101.979 929.399 101.821 928.939 101.821C928.491 101.821 928.17 101.979 927.974 102.294C927.782 102.605 927.686 102.959 927.686 103.355ZM919.862 96.554V95.8636C919.862 95.3864 919.96 94.9496 920.156 94.5533C920.356 94.1527 920.646 93.8331 921.025 93.5945C921.409 93.3516 921.873 93.2301 922.419 93.2301C922.973 93.2301 923.437 93.3516 923.812 93.5945C924.187 93.8331 924.471 94.1527 924.662 94.5533C924.854 94.9496 924.95 95.3864 924.95 95.8636V96.554C924.95 97.0312 924.852 97.4702 924.656 97.8707C924.464 98.267 924.179 98.5866 923.8 98.8295C923.425 99.0682 922.964 99.1875 922.419 99.1875C921.865 99.1875 921.398 99.0682 921.019 98.8295C920.64 98.5866 920.352 98.267 920.156 97.8707C919.96 97.4702 919.862 97.0312 919.862 96.554ZM921.166 95.8636V96.554C921.166 96.9503 921.26 97.3061 921.447 97.6214C921.635 97.9325 921.959 98.0881 922.419 98.0881C922.866 98.0881 923.182 97.9325 923.365 97.6214C923.552 97.3061 923.646 96.9503 923.646 96.554V95.8636C923.646 95.4673 923.557 95.1136 923.378 94.8026C923.199 94.4872 922.879 94.3295 922.419 94.3295C921.971 94.3295 921.65 94.4872 921.454 94.8026C921.262 95.1136 921.166 95.4673 921.166 95.8636ZM920.348 106.5L929.348 93.4091H930.805L921.805 106.5H920.348ZM937.581 99.9545C937.581 101.565 937.37 103.048 936.948 104.403C936.53 105.754 935.932 106.999 935.152 108.136H933.822C934.129 107.714 934.415 107.195 934.679 106.577C934.947 105.963 935.182 105.29 935.382 104.557C935.582 103.82 935.738 103.059 935.849 102.275C935.964 101.487 936.021 100.713 936.021 99.9545C936.021 98.9403 935.923 97.9112 935.727 96.8672C935.531 95.8232 935.267 94.8537 934.934 93.9588C934.602 93.0639 934.231 92.3352 933.822 91.7727H935.152C935.932 92.9105 936.53 94.157 936.948 95.5121C937.37 96.8629 937.581 98.3437 937.581 99.9545Z" fill="#E54646"/>
<path d="M1023.53 75H1018.26L1026.3 51.7273H1032.64L1040.66 75H1035.39L1029.56 57.0455H1029.38L1023.53 75ZM1023.2 65.8523H1035.66V69.6932H1023.2V65.8523ZM1047.47 75H1042.2L1050.23 51.7273H1056.57L1064.6 75H1059.32L1053.49 57.0455H1053.31L1047.47 75ZM1047.14 65.8523H1059.6V69.6932H1047.14V65.8523ZM1067.4 75V51.7273H1076.58C1078.34 51.7273 1079.85 52.0644 1081.09 52.7386C1082.33 53.4053 1083.28 54.3333 1083.93 55.5227C1084.59 56.7045 1084.92 58.0682 1084.92 59.6136C1084.92 61.1591 1084.59 62.5227 1083.92 63.7045C1083.25 64.8864 1082.29 65.8068 1081.02 66.4659C1079.77 67.125 1078.24 67.4545 1076.45 67.4545H1070.6V63.5114H1075.66C1076.61 63.5114 1077.39 63.3485 1078 63.0227C1078.62 62.6894 1079.08 62.2311 1079.39 61.6477C1079.7 61.0568 1079.85 60.3788 1079.85 59.6136C1079.85 58.8409 1079.7 58.1667 1079.39 57.5909C1079.08 57.0076 1078.62 56.5568 1078 56.2386C1077.38 55.9129 1076.59 55.75 1075.64 55.75H1072.32V75H1067.4ZM1088.12 75V51.7273H1093.04V70.9432H1103.01V75H1088.12Z" fill="white"/>
<path d="M1019.62 109H1017.96L1022.77 95.9091H1024.4L1029.21 109H1027.55L1023.64 97.9801H1023.53L1019.62 109ZM1020.24 103.886H1026.93V105.293H1020.24V103.886ZM1031.04 112.682V99.1818H1032.5V100.741H1032.68C1032.79 100.571 1032.95 100.354 1033.14 100.089C1033.34 99.821 1033.63 99.5824 1034 99.3736C1034.37 99.1605 1034.88 99.054 1035.52 99.054C1036.35 99.054 1037.07 99.2607 1037.71 99.674C1038.34 100.087 1038.83 100.673 1039.18 101.432C1039.54 102.19 1039.71 103.085 1039.71 104.116C1039.71 105.156 1039.54 106.058 1039.18 106.82C1038.83 107.579 1038.34 108.167 1037.71 108.585C1037.09 108.998 1036.36 109.205 1035.54 109.205C1034.91 109.205 1034.41 109.1 1034.03 108.891C1033.65 108.678 1033.36 108.437 1033.15 108.169C1032.95 107.896 1032.79 107.67 1032.68 107.491H1032.55V112.682H1031.04ZM1032.53 104.091C1032.53 104.832 1032.64 105.487 1032.85 106.053C1033.07 106.616 1033.39 107.057 1033.81 107.376C1034.22 107.692 1034.74 107.849 1035.34 107.849C1035.97 107.849 1036.5 107.683 1036.92 107.351C1037.35 107.014 1037.66 106.562 1037.88 105.996C1038.1 105.425 1038.2 104.79 1038.2 104.091C1038.2 103.401 1038.1 102.778 1037.88 102.224C1037.68 101.666 1037.36 101.225 1036.93 100.901C1036.51 100.573 1035.98 100.409 1035.34 100.409C1034.73 100.409 1034.21 100.565 1033.79 100.876C1033.38 101.183 1033.06 101.613 1032.85 102.167C1032.63 102.717 1032.53 103.358 1032.53 104.091ZM1042.01 112.682V99.1818H1043.47V100.741H1043.65C1043.76 100.571 1043.91 100.354 1044.11 100.089C1044.31 99.821 1044.6 99.5824 1044.97 99.3736C1045.34 99.1605 1045.85 99.054 1046.49 99.054C1047.31 99.054 1048.04 99.2607 1048.67 99.674C1049.3 100.087 1049.8 100.673 1050.15 101.432C1050.5 102.19 1050.68 103.085 1050.68 104.116C1050.68 105.156 1050.5 106.058 1050.15 106.82C1049.8 107.579 1049.31 108.167 1048.68 108.585C1048.05 108.998 1047.33 109.205 1046.51 109.205C1045.88 109.205 1045.38 109.1 1045 108.891C1044.62 108.678 1044.33 108.437 1044.12 108.169C1043.92 107.896 1043.76 107.67 1043.65 107.491H1043.52V112.682H1042.01ZM1043.5 104.091C1043.5 104.832 1043.61 105.487 1043.82 106.053C1044.04 106.616 1044.36 107.057 1044.77 107.376C1045.19 107.692 1045.7 107.849 1046.31 107.849C1046.94 107.849 1047.47 107.683 1047.89 107.351C1048.31 107.014 1048.63 106.562 1048.85 105.996C1049.06 105.425 1049.17 104.79 1049.17 104.091C1049.17 103.401 1049.07 102.778 1048.85 102.224C1048.64 101.666 1048.33 101.225 1047.9 100.901C1047.48 100.573 1046.95 100.409 1046.31 100.409C1045.7 100.409 1045.18 100.565 1044.76 100.876C1044.34 101.183 1044.03 101.613 1043.82 102.167C1043.6 102.717 1043.5 103.358 1043.5 104.091ZM1054.49 95.9091V109H1052.98V95.9091H1054.49ZM1061.37 109.205C1060.42 109.205 1059.61 108.996 1058.92 108.578C1058.24 108.156 1057.71 107.568 1057.34 106.814C1056.98 106.055 1056.79 105.173 1056.79 104.168C1056.79 103.162 1056.98 102.276 1057.34 101.509C1057.71 100.737 1058.23 100.136 1058.89 99.706C1059.55 99.2713 1060.33 99.054 1061.22 99.054C1061.73 99.054 1062.23 99.1392 1062.73 99.3097C1063.23 99.4801 1063.68 99.7571 1064.09 100.141C1064.5 100.52 1064.83 101.023 1065.07 101.649C1065.31 102.276 1065.44 103.047 1065.44 103.963V104.602H1057.87V103.298H1063.9C1063.9 102.744 1063.79 102.25 1063.57 101.815C1063.35 101.381 1063.04 101.038 1062.64 100.786C1062.24 100.535 1061.76 100.409 1061.22 100.409C1060.62 100.409 1060.1 100.558 1059.66 100.857C1059.22 101.151 1058.89 101.534 1058.65 102.007C1058.42 102.48 1058.3 102.987 1058.3 103.528V104.398C1058.3 105.139 1058.43 105.768 1058.69 106.283C1058.95 106.795 1059.31 107.185 1059.77 107.453C1060.23 107.717 1060.76 107.849 1061.37 107.849C1061.77 107.849 1062.12 107.794 1062.44 107.683C1062.77 107.568 1063.05 107.398 1063.28 107.172C1063.52 106.942 1063.7 106.656 1063.82 106.315L1065.28 106.724C1065.13 107.219 1064.87 107.653 1064.51 108.028C1064.15 108.399 1063.7 108.689 1063.17 108.898C1062.63 109.102 1062.03 109.205 1061.37 109.205ZM1074.58 95.9091V109H1073V95.9091H1074.58ZM1079.06 103.094V109H1077.56V99.1818H1079.01V100.716H1079.14C1079.37 100.217 1079.72 99.8168 1080.19 99.5142C1080.66 99.2074 1081.26 99.054 1082.01 99.054C1082.67 99.054 1083.25 99.1903 1083.75 99.4631C1084.25 99.7315 1084.64 100.141 1084.91 100.69C1085.19 101.236 1085.33 101.926 1085.33 102.761V109H1083.82V102.864C1083.82 102.092 1083.62 101.491 1083.22 101.061C1082.82 100.626 1082.27 100.409 1081.57 100.409C1081.09 100.409 1080.66 100.513 1080.28 100.722C1079.9 100.931 1079.61 101.236 1079.39 101.636C1079.17 102.037 1079.06 102.523 1079.06 103.094ZM1092.07 109.205C1091.15 109.205 1090.36 108.987 1089.7 108.553C1089.03 108.118 1088.52 107.519 1088.16 106.756C1087.8 105.994 1087.63 105.122 1087.63 104.142C1087.63 103.145 1087.81 102.265 1088.18 101.502C1088.55 100.735 1089.06 100.136 1089.72 99.706C1090.39 99.2713 1091.16 99.054 1092.05 99.054C1092.74 99.054 1093.36 99.1818 1093.92 99.4375C1094.47 99.6932 1094.92 100.051 1095.28 100.511C1095.63 100.972 1095.85 101.509 1095.94 102.122H1094.43C1094.31 101.675 1094.06 101.278 1093.66 100.933C1093.27 100.584 1092.74 100.409 1092.07 100.409C1091.49 100.409 1090.97 100.562 1090.53 100.869C1090.09 101.172 1089.75 101.6 1089.5 102.154C1089.26 102.704 1089.13 103.349 1089.13 104.091C1089.13 104.849 1089.25 105.51 1089.49 106.072C1089.73 106.635 1090.08 107.072 1090.51 107.383C1090.96 107.694 1091.48 107.849 1092.07 107.849C1092.47 107.849 1092.82 107.781 1093.14 107.645C1093.46 107.509 1093.73 107.312 1093.95 107.057C1094.18 106.801 1094.33 106.494 1094.43 106.136H1095.94C1095.85 106.716 1095.64 107.238 1095.3 107.702C1094.97 108.163 1094.53 108.529 1093.98 108.802C1093.43 109.07 1092.8 109.205 1092.07 109.205ZM1099.24 109.102C1098.92 109.102 1098.65 108.989 1098.43 108.763C1098.2 108.538 1098.09 108.267 1098.09 107.952C1098.09 107.636 1098.2 107.366 1098.43 107.14C1098.65 106.914 1098.92 106.801 1099.24 106.801C1099.56 106.801 1099.83 106.914 1100.05 107.14C1100.28 107.366 1100.39 107.636 1100.39 107.952C1100.39 108.161 1100.34 108.352 1100.23 108.527C1100.13 108.702 1099.99 108.842 1099.82 108.949C1099.64 109.051 1099.45 109.102 1099.24 109.102Z" fill="white"/>
<path d="M1208.5 79.7759C1208.5 79.7759 1209.6 74.1759 1216 79.7759C1222.4 85.3759 1221.57 86.2538 1226.5 87.2759C1231.6 88.3327 1234.3 84.6414 1239.5 84.2759C1241.84 84.1116 1245.5 84.2759 1245.5 84.2759C1247.5 83.7759 1251.9 82.4759 1253.5 81.2759C1255.5 79.7759 1259 81.7759 1262 79.7759C1264.4 78.1759 1268.37 79.8308 1272 78.2759C1277.33 75.9926 1277.02 69.661 1282.5 67.7759C1286.56 66.3794 1293.5 67.7759 1293.5 67.7759L1310 69.7759" stroke="#E54646" stroke-width="3"/>
<circle cx="1315" cy="72.1552" r="5" fill="#E54646"/>
<path d="M1443.98 51.7273V75H1439.06V56.3977H1438.92L1433.59 59.7386V55.375L1439.36 51.7273H1443.98ZM1449.16 70.9091V67.0341L1458.88 51.7273H1462.22V57.0909H1460.24L1454.11 66.7841V66.9659H1467.92V70.9091H1449.16ZM1460.33 75V69.7273L1460.42 68.0114V51.7273H1465.03V75H1460.33ZM1479.62 51.4091C1480.82 51.4091 1481.97 51.6098 1483.07 52.0114C1484.19 52.4129 1485.18 53.053 1486.05 53.9318C1486.93 54.8106 1487.62 55.9773 1488.13 57.4318C1488.65 58.8788 1488.91 60.6553 1488.91 62.7614C1488.91 64.7386 1488.69 66.5038 1488.24 68.0568C1487.8 69.6023 1487.17 70.9167 1486.35 72C1485.52 73.0833 1484.52 73.9091 1483.36 74.4773C1482.19 75.0379 1480.89 75.3182 1479.45 75.3182C1477.9 75.3182 1476.52 75.0189 1475.34 74.4205C1474.15 73.8144 1473.19 72.9924 1472.46 71.9545C1471.74 70.9091 1471.3 69.7348 1471.15 68.4318H1476.01C1476.2 69.2803 1476.59 69.9394 1477.2 70.4091C1477.8 70.8712 1478.55 71.1023 1479.45 71.1023C1480.96 71.1023 1482.12 70.4432 1482.9 69.125C1483.69 67.7992 1484.09 65.9848 1484.1 63.6818H1483.94C1483.59 64.3636 1483.12 64.9508 1482.53 65.4432C1481.94 65.928 1481.26 66.303 1480.49 66.5682C1479.74 66.8333 1478.93 66.9659 1478.07 66.9659C1476.7 66.9659 1475.48 66.6439 1474.4 66C1473.33 65.3561 1472.48 64.4697 1471.86 63.3409C1471.24 62.2121 1470.93 60.9242 1470.93 59.4773C1470.92 57.9167 1471.28 56.5265 1472.01 55.3068C1472.73 54.0871 1473.75 53.1326 1475.05 52.4432C1476.36 51.7462 1477.88 51.4015 1479.62 51.4091ZM1479.65 55.2727C1478.89 55.2727 1478.21 55.4545 1477.61 55.8182C1477.02 56.1818 1476.55 56.6705 1476.2 57.2841C1475.86 57.8977 1475.69 58.5833 1475.7 59.3409C1475.7 60.1061 1475.87 60.7955 1476.2 61.4091C1476.54 62.0152 1477 62.5 1477.59 62.8636C1478.18 63.2197 1478.85 63.3977 1479.61 63.3977C1480.18 63.3977 1480.7 63.2917 1481.19 63.0795C1481.67 62.8674 1482.09 62.5758 1482.45 62.2045C1482.81 61.8258 1483.1 61.3902 1483.3 60.8977C1483.51 60.4053 1483.61 59.8826 1483.61 59.3295C1483.6 58.5947 1483.43 57.9205 1483.09 57.3068C1482.74 56.6932 1482.27 56.2008 1481.68 55.8295C1481.08 55.4583 1480.4 55.2727 1479.65 55.2727ZM1494.26 75.2955C1493.51 75.2955 1492.87 75.0303 1492.33 74.5C1491.8 73.9621 1491.53 73.3182 1491.53 72.5682C1491.53 71.8258 1491.8 71.1894 1492.33 70.6591C1492.87 70.1288 1493.51 69.8636 1494.26 69.8636C1494.99 69.8636 1495.63 70.1288 1496.17 70.6591C1496.72 71.1894 1496.99 71.8258 1496.99 72.5682C1496.99 73.0682 1496.86 73.5265 1496.6 73.9432C1496.35 74.3523 1496.02 74.6818 1495.61 74.9318C1495.2 75.1742 1494.75 75.2955 1494.26 75.2955ZM1500.96 75L1510.61 55.9091V55.75H1499.37V51.7273H1515.7V55.8068L1506.04 75H1500.96ZM1516.85 70.9091V67.0341L1526.56 51.7273H1529.9V57.0909H1527.93L1521.8 66.7841V66.9659H1535.61V70.9091H1516.85ZM1528.02 75V69.7273L1528.11 68.0114V51.7273H1532.72V75H1528.02Z" fill="white"/>
<path d="M1390.85 106.699V98.2614H1392.28V106.699H1390.85ZM1387.35 103.196V101.764H1395.79V103.196H1387.35ZM1408.52 95.9091V109H1406.94V97.571H1406.86L1403.66 99.6932V98.0824L1406.94 95.9091H1408.52ZM1412.64 109.102C1412.32 109.102 1412.05 108.989 1411.83 108.763C1411.6 108.538 1411.49 108.267 1411.49 107.952C1411.49 107.636 1411.6 107.366 1411.83 107.14C1412.05 106.914 1412.32 106.801 1412.64 106.801C1412.95 106.801 1413.22 106.914 1413.45 107.14C1413.68 107.366 1413.79 107.636 1413.79 107.952C1413.79 108.161 1413.74 108.352 1413.63 108.527C1413.53 108.702 1413.39 108.842 1413.21 108.949C1413.04 109.051 1412.85 109.102 1412.64 109.102ZM1420.26 109.179C1419.38 109.179 1418.61 109.023 1417.93 108.712C1417.26 108.397 1416.74 107.964 1416.37 107.415C1415.99 106.861 1415.81 106.23 1415.81 105.523C1415.81 104.969 1415.91 104.457 1416.14 103.989C1416.36 103.516 1416.66 103.121 1417.04 102.806C1417.43 102.487 1417.86 102.284 1418.34 102.199V102.122C1417.72 101.96 1417.22 101.609 1416.85 101.067C1416.48 100.522 1416.29 99.902 1416.3 99.2074C1416.29 98.5426 1416.46 97.9482 1416.8 97.424C1417.14 96.8999 1417.61 96.4865 1418.21 96.1839C1418.81 95.8814 1419.49 95.7301 1420.26 95.7301C1421.02 95.7301 1421.7 95.8814 1422.29 96.1839C1422.89 96.4865 1423.36 96.8999 1423.7 97.424C1424.04 97.9482 1424.22 98.5426 1424.22 99.2074C1424.22 99.902 1424.03 100.522 1423.65 101.067C1423.28 101.609 1422.79 101.96 1422.18 102.122V102.199C1422.65 102.284 1423.08 102.487 1423.46 102.806C1423.83 103.121 1424.14 103.516 1424.36 103.989C1424.59 104.457 1424.7 104.969 1424.71 105.523C1424.7 106.23 1424.51 106.861 1424.13 107.415C1423.76 107.964 1423.24 108.397 1422.57 108.712C1421.9 109.023 1421.13 109.179 1420.26 109.179ZM1420.26 107.773C1420.85 107.773 1421.36 107.677 1421.79 107.485C1422.22 107.293 1422.56 107.023 1422.79 106.673C1423.02 106.324 1423.14 105.915 1423.15 105.446C1423.14 104.952 1423.02 104.515 1422.76 104.136C1422.51 103.756 1422.17 103.458 1421.74 103.241C1421.31 103.023 1420.81 102.915 1420.26 102.915C1419.7 102.915 1419.2 103.023 1418.76 103.241C1418.33 103.458 1417.99 103.756 1417.73 104.136C1417.49 104.515 1417.37 104.952 1417.37 105.446C1417.37 105.915 1417.48 106.324 1417.71 106.673C1417.94 107.023 1418.28 107.293 1418.71 107.485C1419.15 107.677 1419.66 107.773 1420.26 107.773ZM1420.26 101.56C1420.73 101.56 1421.14 101.466 1421.51 101.278C1421.87 101.091 1422.16 100.829 1422.37 100.492C1422.58 100.156 1422.68 99.7614 1422.69 99.3097C1422.68 98.8665 1422.58 98.4808 1422.38 98.1527C1422.17 97.8203 1421.89 97.5646 1421.52 97.3857C1421.16 97.2024 1420.74 97.1108 1420.26 97.1108C1419.77 97.1108 1419.34 97.2024 1418.97 97.3857C1418.61 97.5646 1418.32 97.8203 1418.12 98.1527C1417.92 98.4808 1417.83 98.8665 1417.83 99.3097C1417.83 99.7614 1417.93 100.156 1418.13 100.492C1418.34 100.829 1418.63 101.091 1418.99 101.278C1419.36 101.466 1419.78 101.56 1420.26 101.56ZM1427.57 109L1433.42 97.4176V97.3153H1426.67V95.9091H1435.06V97.392L1429.23 109H1427.57ZM1443.07 102.455C1443.07 100.844 1443.27 99.3629 1443.69 98.0121C1444.11 96.657 1444.72 95.4105 1445.5 94.2727H1446.82C1446.52 94.6946 1446.23 95.2145 1445.96 95.8324C1445.7 96.446 1445.47 97.1214 1445.26 97.8587C1445.06 98.5916 1444.91 99.3501 1444.79 100.134C1444.68 100.918 1444.63 101.692 1444.63 102.455C1444.63 103.469 1444.72 104.498 1444.92 105.542C1445.12 106.586 1445.38 107.555 1445.71 108.45C1446.04 109.345 1446.42 110.074 1446.82 110.636H1445.5C1444.72 109.499 1444.11 108.254 1443.69 106.903C1443.27 105.548 1443.07 104.065 1443.07 102.455ZM1452.89 106.699V98.2614H1454.32V106.699H1452.89ZM1449.38 103.196V101.764H1457.82V103.196H1449.38ZM1465.49 95.9091V109H1463.91V97.571H1463.83L1460.63 99.6932V98.0824L1463.91 95.9091H1465.49ZM1469.61 109.102C1469.29 109.102 1469.02 108.989 1468.8 108.763C1468.57 108.538 1468.46 108.267 1468.46 107.952C1468.46 107.636 1468.57 107.366 1468.8 107.14C1469.02 106.914 1469.29 106.801 1469.61 106.801C1469.92 106.801 1470.19 106.914 1470.42 107.14C1470.65 107.366 1470.76 107.636 1470.76 107.952C1470.76 108.161 1470.71 108.352 1470.6 108.527C1470.5 108.702 1470.36 108.842 1470.18 108.949C1470.01 109.051 1469.82 109.102 1469.61 109.102ZM1473.44 109V107.849L1477.76 103.119C1478.27 102.565 1478.69 102.084 1479.01 101.675C1479.34 101.261 1479.59 100.874 1479.74 100.511C1479.91 100.145 1479.99 99.7614 1479.99 99.3608C1479.99 98.9006 1479.88 98.5021 1479.65 98.1655C1479.44 97.8288 1479.14 97.5689 1478.76 97.3857C1478.38 97.2024 1477.95 97.1108 1477.48 97.1108C1476.98 97.1108 1476.54 97.2152 1476.16 97.424C1475.79 97.6286 1475.51 97.9162 1475.3 98.2869C1475.1 98.6577 1475 99.0923 1475 99.5909H1473.49C1473.49 98.8239 1473.67 98.1506 1474.02 97.571C1474.38 96.9915 1474.86 96.5398 1475.47 96.2159C1476.08 95.892 1476.77 95.7301 1477.53 95.7301C1478.3 95.7301 1478.98 95.892 1479.57 96.2159C1480.16 96.5398 1480.63 96.9766 1480.96 97.5263C1481.3 98.076 1481.47 98.6875 1481.47 99.3608C1481.47 99.8423 1481.38 100.313 1481.21 100.773C1481.04 101.229 1480.74 101.739 1480.31 102.301C1479.89 102.859 1479.3 103.541 1478.55 104.347L1475.61 107.491V107.594H1481.7V109H1473.44ZM1488.69 109.179C1488.15 109.17 1487.61 109.068 1487.08 108.872C1486.54 108.676 1486.05 108.346 1485.61 107.881C1485.16 107.413 1484.81 106.78 1484.54 105.983C1484.27 105.182 1484.13 104.176 1484.13 102.966C1484.13 101.807 1484.24 100.78 1484.46 99.8849C1484.68 98.9858 1484.99 98.2294 1485.41 97.6158C1485.82 96.9979 1486.32 96.5291 1486.9 96.2095C1487.49 95.8899 1488.15 95.7301 1488.89 95.7301C1489.62 95.7301 1490.28 95.8771 1490.85 96.1712C1491.42 96.4609 1491.89 96.8658 1492.25 97.3857C1492.62 97.9055 1492.85 98.5043 1492.96 99.1818H1491.4C1491.25 98.5937 1490.97 98.1058 1490.55 97.718C1490.13 97.3303 1489.58 97.1364 1488.89 97.1364C1487.88 97.1364 1487.08 97.5774 1486.49 98.4595C1485.91 99.3416 1485.62 100.58 1485.62 102.173H1485.72C1485.96 101.811 1486.24 101.502 1486.57 101.246C1486.9 100.987 1487.27 100.786 1487.67 100.646C1488.07 100.505 1488.49 100.435 1488.94 100.435C1489.69 100.435 1490.38 100.622 1491 100.997C1491.62 101.368 1492.12 101.881 1492.5 102.538C1492.87 103.19 1493.06 103.938 1493.06 104.781C1493.06 105.591 1492.88 106.332 1492.51 107.006C1492.15 107.675 1491.64 108.207 1490.99 108.604C1490.34 108.996 1489.57 109.188 1488.69 109.179ZM1488.69 107.773C1489.22 107.773 1489.7 107.638 1490.13 107.37C1490.56 107.102 1490.9 106.741 1491.15 106.29C1491.4 105.838 1491.52 105.335 1491.52 104.781C1491.52 104.24 1491.4 103.748 1491.16 103.305C1490.92 102.857 1490.59 102.501 1490.17 102.237C1489.75 101.973 1489.27 101.841 1488.74 101.841C1488.33 101.841 1487.96 101.922 1487.61 102.084C1487.26 102.241 1486.95 102.459 1486.69 102.736C1486.43 103.013 1486.22 103.33 1486.07 103.688C1485.92 104.042 1485.85 104.415 1485.85 104.807C1485.85 105.327 1485.97 105.812 1486.21 106.264C1486.46 106.716 1486.8 107.08 1487.22 107.357C1487.65 107.634 1488.14 107.773 1488.69 107.773ZM1502.25 106.545V105.855C1502.25 105.378 1502.34 104.941 1502.54 104.545C1502.74 104.144 1503.03 103.825 1503.41 103.586C1503.79 103.343 1504.26 103.222 1504.8 103.222C1505.36 103.222 1505.82 103.343 1506.2 103.586C1506.57 103.825 1506.85 104.144 1507.05 104.545C1507.24 104.941 1507.33 105.378 1507.33 105.855V106.545C1507.33 107.023 1507.24 107.462 1507.04 107.862C1506.85 108.259 1506.56 108.578 1506.18 108.821C1505.81 109.06 1505.35 109.179 1504.8 109.179C1504.25 109.179 1503.78 109.06 1503.4 108.821C1503.02 108.578 1502.74 108.259 1502.54 107.862C1502.34 107.462 1502.25 107.023 1502.25 106.545ZM1503.55 105.855V106.545C1503.55 106.942 1503.64 107.298 1503.83 107.613C1504.02 107.924 1504.34 108.08 1504.8 108.08C1505.25 108.08 1505.56 107.924 1505.75 107.613C1505.94 107.298 1506.03 106.942 1506.03 106.545V105.855C1506.03 105.459 1505.94 105.105 1505.76 104.794C1505.58 104.479 1505.26 104.321 1504.8 104.321C1504.35 104.321 1504.03 104.479 1503.84 104.794C1503.65 105.105 1503.55 105.459 1503.55 105.855ZM1495.73 99.054V98.3636C1495.73 97.8864 1495.82 97.4496 1496.02 97.0533C1496.22 96.6527 1496.51 96.3331 1496.89 96.0945C1497.27 95.8516 1497.74 95.7301 1498.28 95.7301C1498.84 95.7301 1499.3 95.8516 1499.68 96.0945C1500.05 96.3331 1500.33 96.6527 1500.53 97.0533C1500.72 97.4496 1500.81 97.8864 1500.81 98.3636V99.054C1500.81 99.5312 1500.72 99.9702 1500.52 100.371C1500.33 100.767 1500.04 101.087 1499.66 101.33C1499.29 101.568 1498.83 101.688 1498.28 101.688C1497.73 101.688 1497.26 101.568 1496.88 101.33C1496.5 101.087 1496.22 100.767 1496.02 100.371C1495.82 99.9702 1495.73 99.5312 1495.73 99.054ZM1497.03 98.3636V99.054C1497.03 99.4503 1497.12 99.8061 1497.31 100.121C1497.5 100.433 1497.82 100.588 1498.28 100.588C1498.73 100.588 1499.04 100.433 1499.23 100.121C1499.42 99.8061 1499.51 99.4503 1499.51 99.054V98.3636C1499.51 97.9673 1499.42 97.6136 1499.24 97.3026C1499.06 96.9872 1498.74 96.8295 1498.28 96.8295C1497.83 96.8295 1497.51 96.9872 1497.32 97.3026C1497.13 97.6136 1497.03 97.9673 1497.03 98.3636ZM1496.21 109L1505.21 95.9091H1506.67L1497.67 109H1496.21ZM1513.44 102.455C1513.44 104.065 1513.23 105.548 1512.81 106.903C1512.39 108.254 1511.79 109.499 1511.02 110.636H1509.69C1509.99 110.214 1510.28 109.695 1510.54 109.077C1510.81 108.463 1511.04 107.79 1511.25 107.057C1511.45 106.32 1511.6 105.559 1511.71 104.775C1511.83 103.987 1511.88 103.213 1511.88 102.455C1511.88 101.44 1511.79 100.411 1511.59 99.3672C1511.39 98.3232 1511.13 97.3537 1510.8 96.4588C1510.47 95.5639 1510.09 94.8352 1509.69 94.2727H1511.02C1511.79 95.4105 1512.39 96.657 1512.81 98.0121C1513.23 99.3629 1513.44 100.844 1513.44 102.455Z" fill="#E54646"/>
<path d="M1621.03 75H1615.76L1623.8 51.7273H1630.14L1638.16 75H1632.89L1627.06 57.0455H1626.88L1621.03 75ZM1620.7 65.8523H1633.16V69.6932H1620.7V65.8523ZM1640.96 51.7273H1647.03L1653.44 67.3636H1653.71L1660.12 51.7273H1666.19V75H1661.41V59.8523H1661.22L1655.2 74.8864H1651.95L1645.93 59.7955H1645.73V75H1640.96V51.7273ZM1678.49 75H1670.24V51.7273H1678.56C1680.9 51.7273 1682.92 52.1932 1684.61 53.125C1686.29 54.0492 1687.59 55.3788 1688.5 57.1136C1689.42 58.8485 1689.88 60.9242 1689.88 63.3409C1689.88 65.7652 1689.42 67.8485 1688.5 69.5909C1687.59 71.3333 1686.29 72.6705 1684.58 73.6023C1682.89 74.5341 1680.86 75 1678.49 75ZM1675.16 70.7841H1678.29C1679.74 70.7841 1680.96 70.5265 1681.96 70.0114C1682.96 69.4886 1683.71 68.6818 1684.21 67.5909C1684.71 66.4924 1684.97 65.0758 1684.97 63.3409C1684.97 61.6212 1684.71 60.2159 1684.21 59.125C1683.71 58.0341 1682.96 57.2311 1681.97 56.7159C1680.98 56.2008 1679.75 55.9432 1678.3 55.9432H1675.16V70.7841Z" fill="white"/>
<path d="M1617.12 109H1615.46L1620.27 95.9091H1621.9L1626.71 109H1625.05L1621.14 97.9801H1621.03L1617.12 109ZM1617.74 103.886H1624.43V105.293H1617.74V103.886ZM1632.25 109.205C1631.43 109.205 1630.71 108.998 1630.09 108.585C1629.46 108.167 1628.97 107.579 1628.62 106.82C1628.26 106.058 1628.08 105.156 1628.08 104.116C1628.08 103.085 1628.26 102.19 1628.62 101.432C1628.97 100.673 1629.46 100.087 1630.09 99.674C1630.72 99.2607 1631.45 99.054 1632.28 99.054C1632.92 99.054 1633.42 99.1605 1633.79 99.3736C1634.17 99.5824 1634.45 99.821 1634.65 100.089C1634.85 100.354 1635 100.571 1635.12 100.741H1635.24V95.9091H1636.75V109H1635.29V107.491H1635.12C1635 107.67 1634.85 107.896 1634.64 108.169C1634.44 108.437 1634.15 108.678 1633.77 108.891C1633.39 109.1 1632.88 109.205 1632.25 109.205ZM1632.46 107.849C1633.06 107.849 1633.57 107.692 1633.99 107.376C1634.41 107.057 1634.73 106.616 1634.94 106.053C1635.16 105.487 1635.27 104.832 1635.27 104.091C1635.27 103.358 1635.16 102.717 1634.95 102.167C1634.74 101.613 1634.42 101.183 1634 100.876C1633.59 100.565 1633.07 100.409 1632.46 100.409C1631.82 100.409 1631.28 100.573 1630.86 100.901C1630.44 101.225 1630.12 101.666 1629.91 102.224C1629.7 102.778 1629.59 103.401 1629.59 104.091C1629.59 104.79 1629.7 105.425 1629.91 105.996C1630.13 106.562 1630.45 107.014 1630.87 107.351C1631.3 107.683 1631.83 107.849 1632.46 107.849ZM1647.75 99.1818L1644.12 109H1642.59L1638.96 99.1818H1640.59L1643.3 107.006H1643.41L1646.12 99.1818H1647.75ZM1652.33 109.23C1651.71 109.23 1651.15 109.113 1650.64 108.879C1650.13 108.64 1649.73 108.297 1649.43 107.849C1649.13 107.398 1648.98 106.852 1648.98 106.213C1648.98 105.651 1649.1 105.195 1649.32 104.845C1649.54 104.491 1649.84 104.214 1650.21 104.014C1650.58 103.814 1650.99 103.665 1651.43 103.567C1651.88 103.464 1652.34 103.384 1652.79 103.324C1653.39 103.247 1653.87 103.19 1654.25 103.151C1654.62 103.109 1654.89 103.038 1655.06 102.94C1655.24 102.842 1655.33 102.672 1655.33 102.429V102.378C1655.33 101.747 1655.15 101.257 1654.81 100.908C1654.47 100.558 1653.95 100.384 1653.25 100.384C1652.53 100.384 1651.97 100.541 1651.56 100.857C1651.15 101.172 1650.86 101.509 1650.7 101.866L1649.27 101.355C1649.52 100.759 1649.86 100.294 1650.29 99.9616C1650.72 99.625 1651.19 99.3906 1651.7 99.2585C1652.21 99.1222 1652.71 99.054 1653.2 99.054C1653.52 99.054 1653.88 99.0923 1654.29 99.169C1654.7 99.2415 1655.1 99.3928 1655.49 99.6229C1655.87 99.853 1656.2 100.2 1656.45 100.665C1656.71 101.129 1656.83 101.751 1656.83 102.531V109H1655.33V107.67H1655.25C1655.15 107.884 1654.98 108.112 1654.74 108.354C1654.5 108.597 1654.18 108.804 1653.79 108.974C1653.39 109.145 1652.91 109.23 1652.33 109.23ZM1652.56 107.875C1653.16 107.875 1653.66 107.758 1654.07 107.523C1654.49 107.289 1654.8 106.987 1655.01 106.616C1655.22 106.245 1655.33 105.855 1655.33 105.446V104.065C1655.26 104.142 1655.12 104.212 1654.9 104.276C1654.69 104.336 1654.44 104.389 1654.16 104.436C1653.89 104.479 1653.61 104.517 1653.35 104.551C1653.09 104.581 1652.88 104.607 1652.72 104.628C1652.33 104.679 1651.96 104.762 1651.62 104.877C1651.28 104.988 1651.01 105.156 1650.8 105.382C1650.6 105.604 1650.49 105.906 1650.49 106.29C1650.49 106.814 1650.69 107.21 1651.08 107.479C1651.47 107.743 1651.96 107.875 1652.56 107.875ZM1661.1 103.094V109H1659.59V99.1818H1661.05V100.716H1661.17C1661.4 100.217 1661.75 99.8168 1662.22 99.5142C1662.69 99.2074 1663.3 99.054 1664.04 99.054C1664.7 99.054 1665.28 99.1903 1665.78 99.4631C1666.28 99.7315 1666.67 100.141 1666.94 100.69C1667.22 101.236 1667.36 101.926 1667.36 102.761V109H1665.85V102.864C1665.85 102.092 1665.65 101.491 1665.25 101.061C1664.85 100.626 1664.3 100.409 1663.6 100.409C1663.12 100.409 1662.69 100.513 1662.31 100.722C1661.94 100.931 1661.64 101.236 1661.42 101.636C1661.2 102.037 1661.1 102.523 1661.1 103.094ZM1674.11 109.205C1673.19 109.205 1672.39 108.987 1671.73 108.553C1671.06 108.118 1670.55 107.519 1670.19 106.756C1669.84 105.994 1669.66 105.122 1669.66 104.142C1669.66 103.145 1669.84 102.265 1670.21 101.502C1670.58 100.735 1671.09 100.136 1671.75 99.706C1672.42 99.2713 1673.19 99.054 1674.08 99.054C1674.77 99.054 1675.39 99.1818 1675.95 99.4375C1676.5 99.6932 1676.95 100.051 1677.31 100.511C1677.66 100.972 1677.88 101.509 1677.97 102.122H1676.46C1676.34 101.675 1676.09 101.278 1675.69 100.933C1675.3 100.584 1674.77 100.409 1674.11 100.409C1673.52 100.409 1673 100.562 1672.56 100.869C1672.12 101.172 1671.78 101.6 1671.53 102.154C1671.29 102.704 1671.17 103.349 1671.17 104.091C1671.17 104.849 1671.28 105.51 1671.52 106.072C1671.77 106.635 1672.11 107.072 1672.55 107.383C1672.99 107.694 1673.51 107.849 1674.11 107.849C1674.5 107.849 1674.85 107.781 1675.17 107.645C1675.49 107.509 1675.76 107.312 1675.98 107.057C1676.21 106.801 1676.36 106.494 1676.46 106.136H1677.97C1677.88 106.716 1677.67 107.238 1677.33 107.702C1677 108.163 1676.56 108.529 1676.01 108.802C1675.47 109.07 1674.83 109.205 1674.11 109.205ZM1684.29 109.205C1683.34 109.205 1682.53 108.996 1681.84 108.578C1681.16 108.156 1680.63 107.568 1680.26 106.814C1679.89 106.055 1679.71 105.173 1679.71 104.168C1679.71 103.162 1679.89 102.276 1680.26 101.509C1680.63 100.737 1681.15 100.136 1681.81 99.706C1682.47 99.2713 1683.25 99.054 1684.13 99.054C1684.65 99.054 1685.15 99.1392 1685.65 99.3097C1686.15 99.4801 1686.6 99.7571 1687.01 100.141C1687.42 100.52 1687.75 101.023 1687.99 101.649C1688.23 102.276 1688.35 103.047 1688.35 103.963V104.602H1680.79V103.298H1686.82C1686.82 102.744 1686.71 102.25 1686.49 101.815C1686.27 101.381 1685.96 101.038 1685.55 100.786C1685.15 100.535 1684.68 100.409 1684.13 100.409C1683.53 100.409 1683.01 100.558 1682.58 100.857C1682.14 101.151 1681.81 101.534 1681.57 102.007C1681.34 102.48 1681.22 102.987 1681.22 103.528V104.398C1681.22 105.139 1681.35 105.768 1681.6 106.283C1681.86 106.795 1682.22 107.185 1682.68 107.453C1683.14 107.717 1683.68 107.849 1684.29 107.849C1684.68 107.849 1685.04 107.794 1685.36 107.683C1685.69 107.568 1685.97 107.398 1686.2 107.172C1686.43 106.942 1686.61 106.656 1686.74 106.315L1688.2 106.724C1688.05 107.219 1687.79 107.653 1687.43 108.028C1687.06 108.399 1686.62 108.689 1686.08 108.898C1685.55 109.102 1684.95 109.205 1684.29 109.205ZM1694.36 109.205C1693.54 109.205 1692.82 108.998 1692.19 108.585C1691.56 108.167 1691.07 107.579 1690.72 106.82C1690.36 106.058 1690.19 105.156 1690.19 104.116C1690.19 103.085 1690.36 102.19 1690.72 101.432C1691.07 100.673 1691.56 100.087 1692.2 99.674C1692.83 99.2607 1693.55 99.054 1694.38 99.054C1695.02 99.054 1695.53 99.1605 1695.9 99.3736C1696.27 99.5824 1696.56 99.821 1696.75 100.089C1696.95 100.354 1697.11 100.571 1697.22 100.741H1697.35V95.9091H1698.86V109H1697.4V107.491H1697.22C1697.11 107.67 1696.95 107.896 1696.75 108.169C1696.54 108.437 1696.25 108.678 1695.87 108.891C1695.49 109.1 1694.99 109.205 1694.36 109.205ZM1694.56 107.849C1695.17 107.849 1695.68 107.692 1696.09 107.376C1696.51 107.057 1696.83 106.616 1697.05 106.053C1697.26 105.487 1697.37 104.832 1697.37 104.091C1697.37 103.358 1697.27 102.717 1697.05 102.167C1696.84 101.613 1696.52 101.183 1696.11 100.876C1695.69 100.565 1695.17 100.409 1694.56 100.409C1693.92 100.409 1693.39 100.573 1692.96 100.901C1692.54 101.225 1692.22 101.666 1692.01 102.224C1691.8 102.778 1691.7 103.401 1691.7 104.091C1691.7 104.79 1691.8 105.425 1692.02 105.996C1692.23 106.562 1692.55 107.014 1692.97 107.351C1693.4 107.683 1693.93 107.849 1694.56 107.849Z" fill="white"/>
</svg>
