<?xml version="1.0" encoding="UTF-8"?>
<svg xmlns="http://www.w3.org/2000/svg" version="1.1" viewBox="0 0 216 33.8">
  <defs>
    <style>
      .cls-1 {
        fill: #e54646;
      }

      .cls-2 {
        fill: #fff;
      }
    </style>
  </defs>
  <!-- Generator: Adobe Illustrator 28.7.1, SVG Export Plug-In . SVG Version: 1.2.0 Build 142)  -->
  <g>
    <g id="Layer_1">
      <g id="Layer_1-2" data-name="Layer_1">
        <g id="Layer_1-2">
          <path class="cls-2" d="M27.2,17.3c0-1.8.3-3.5,1-5.1s1.7-3,2.9-4.2,2.6-2.2,4.2-2.9c1.6-.7,3.3-1.1,5.2-1.1s3.5.4,5.1,1.1,3,1.7,4.2,2.9,2.2,2.6,2.9,4.2,1,3.3,1,5.1-.3,3.6-1,5.2-1.7,3-2.9,4.2-2.6,2.1-4.2,2.8c-1.6.7-3.3,1-5.1,1s-3.6-.3-5.2-1c-1.6-.7-3-1.6-4.2-2.8-1.2-1.2-2.2-2.6-2.9-4.2-.7-1.6-1-3.4-1-5.3h0ZM30.8,17.3c0,1.4.3,2.7.8,3.9.5,1.2,1.2,2.2,2.1,3.1s1.9,1.6,3.1,2.2c1.2.5,2.4.8,3.8.8s2.6-.3,3.8-.8,2.2-1.2,3.1-2.2c.9-.9,1.5-2,2.1-3.1.5-1.2.8-2.5.8-3.9s-.3-2.7-.8-3.9-1.2-2.3-2.1-3.2-1.9-1.6-3.1-2.1c-1.2-.5-2.4-.8-3.8-.8s-2.6.3-3.8.8-2.2,1.2-3.1,2.2c-.9.9-1.6,2-2.1,3.2s-.7,2.5-.7,3.9h0ZM59.7,30.3V3.4h0l13.6,19.4-1.5-.3,13.6-19.1h0v26.9h-3.5V11.4l.2,1.8-9.8,13.9h0l-10-13.9.6-1.6v18.8h-3.4.2ZM115.6,31.1l-20.1-20.4,1,.3v19.3h-3.4V3.5h.2l19.9,20.5-.8-.2V4.3h3.4v26.9h-.2ZM123.2,4.3h3.5v26h-3.5s0-26,0-26ZM141.1,4.3c1.9,0,3.5.3,4.9,1,1.3.6,2.4,1.5,3.1,2.7.7,1.2,1.1,2.7,1.1,4.4s-.2,2.1-.5,3.1-.8,1.9-1.5,2.7c-.7.8-1.6,1.4-2.7,1.9-1.1.5-2.4.7-4,.7h-3.9v9.6h-3.5V4.3h7,0ZM141.5,17.4c1,0,1.9-.2,2.6-.5s1.2-.8,1.6-1.3c.4-.5.7-1.1.8-1.7s.3-1.1.3-1.5,0-1.1-.3-1.6c-.2-.6-.5-1.1-.9-1.5-.4-.5-.9-.9-1.5-1.2s-1.4-.5-2.3-.5h-4v9.8h3.8-.1ZM150.5,30.3l11.4-27.1h.2l11.3,27.1h-4l-8.5-21.6,2.5-1.6-9.5,23.3h-3.4ZM157.2,20.4h9.7l1.2,3h-11.8l1-3h0ZM191.8,8.9c-.9-.5-1.9-.9-2.9-1.2-1.1-.3-2.1-.5-3.1-.5s-2.5.3-3.3,1c-.8.6-1.2,1.5-1.2,2.6s.3,1.5.8,2.1,1.2,1,2.1,1.4c.9.4,1.8.8,2.7,1.2.8.3,1.6.7,2.4,1,.8.4,1.5.9,2.1,1.4.6.6,1.2,1.3,1.5,2.1.4.8.6,1.9.6,3.1s-.3,2.6-1,3.7-1.6,2-2.9,2.7-2.8,1-4.5,1-2.3-.1-3.3-.4-2-.6-2.9-1-1.7-.9-2.4-1.3l1.5-2.7c.6.4,1.2.8,2,1.2.7.4,1.5.7,2.3.9.8.2,1.6.3,2.4.3s1.6-.1,2.4-.4c.8-.3,1.5-.8,2-1.4s.8-1.5.8-2.5-.2-1.6-.7-2.2-1.1-1.1-1.8-1.5c-.8-.4-1.6-.8-2.4-1.2-.8-.3-1.6-.6-2.5-1-.8-.4-1.6-.8-2.3-1.4s-1.3-1.2-1.7-2-.6-1.8-.6-2.9.3-2.6,1-3.6c.7-1,1.6-1.8,2.7-2.4,1.2-.6,2.5-.9,4-1,1.7,0,3.2.2,4.4.6,1.3.4,2.4.9,3.4,1.5l-1.3,2.7h-.3ZM212.7,8.9c-.9-.5-1.9-.9-2.9-1.2-1.1-.3-2.1-.5-3.1-.5s-2.5.3-3.3,1c-.8.6-1.2,1.5-1.2,2.6s.3,1.5.8,2.1,1.2,1,2.1,1.4c.9.4,1.8.8,2.7,1.2.8.3,1.6.7,2.4,1,.8.4,1.5.9,2.1,1.4.6.6,1.2,1.3,1.5,2.1.4.8.6,1.9.6,3.1s-.3,2.6-1,3.7-1.6,2-2.9,2.7-2.8,1-4.5,1-2.3-.1-3.3-.4-2-.6-2.9-1-1.7-.9-2.4-1.3l1.5-2.7c.6.4,1.2.8,2,1.2.7.4,1.5.7,2.3.9.8.2,1.6.3,2.4.3s1.6-.1,2.4-.4c.8-.3,1.5-.8,2-1.4s.8-1.5.8-2.5-.2-1.6-.7-2.2-1.1-1.1-1.8-1.5c-.8-.4-1.6-.8-2.4-1.2-.8-.3-1.6-.6-2.5-1-.8-.4-1.6-.8-2.3-1.4s-1.3-1.2-1.7-2-.6-1.8-.6-2.9.3-2.6,1-3.6c.7-1,1.6-1.8,2.7-2.4,1.2-.6,2.5-.9,4-1,1.7,0,3.2.2,4.4.6,1.3.4,2.4.9,3.4,1.5l-1.3,2.7h-.3Z"/>
          <path class="cls-1" d="M19.8,16.8c0,8.6,0-2,0,15.5-8.6,0-15.5-6.9-15.5-15.5S11.2,1.3,19.8,1.3v15.5Z"/>
        </g>
      </g>
    </g>
  </g>
</svg>